<svg width="1944" height="350" viewBox="0 0 1944 350" fill="none" xmlns="http://www.w3.org/2000/svg">
<path fill-rule="evenodd" clip-rule="evenodd" d="M0 350V0H2000V350H0Z" fill="#303030"/>
<path d="M436.664 199.228V206.088C436.664 207.04 436.389 207.782 435.838 208.314C435.287 208.837 434.55 209.098 433.626 209.098C432.693 209.098 431.937 208.827 431.358 208.286C430.789 207.745 430.504 206.989 430.504 206.018H432.464C432.473 206.438 432.571 206.765 432.758 206.998C432.954 207.231 433.234 207.348 433.598 207.348C433.953 207.348 434.223 207.236 434.41 207.012C434.597 206.788 434.69 206.48 434.69 206.088V199.228H436.664ZM442.394 209.126C441.648 209.126 440.976 208.963 440.378 208.636C439.781 208.3 439.31 207.829 438.964 207.222C438.628 206.615 438.46 205.915 438.46 205.122C438.46 204.329 438.633 203.629 438.978 203.022C439.333 202.415 439.814 201.949 440.42 201.622C441.027 201.286 441.704 201.118 442.45 201.118C443.197 201.118 443.874 201.286 444.48 201.622C445.087 201.949 445.563 202.415 445.908 203.022C446.263 203.629 446.44 204.329 446.44 205.122C446.44 205.915 446.258 206.615 445.894 207.222C445.54 207.829 445.054 208.3 444.438 208.636C443.832 208.963 443.15 209.126 442.394 209.126ZM442.394 207.418C442.749 207.418 443.08 207.334 443.388 207.166C443.706 206.989 443.958 206.727 444.144 206.382C444.331 206.037 444.424 205.617 444.424 205.122C444.424 204.385 444.228 203.82 443.836 203.428C443.454 203.027 442.982 202.826 442.422 202.826C441.862 202.826 441.391 203.027 441.008 203.428C440.635 203.82 440.448 204.385 440.448 205.122C440.448 205.859 440.63 206.429 440.994 206.83C441.368 207.222 441.834 207.418 442.394 207.418ZM455.2 201.244V209H453.226V208.02C452.974 208.356 452.643 208.622 452.232 208.818C451.831 209.005 451.392 209.098 450.916 209.098C450.309 209.098 449.773 208.972 449.306 208.72C448.839 208.459 448.471 208.081 448.2 207.586C447.939 207.082 447.808 206.485 447.808 205.794V201.244H449.768V205.514C449.768 206.13 449.922 206.606 450.23 206.942C450.538 207.269 450.958 207.432 451.49 207.432C452.031 207.432 452.456 207.269 452.764 206.942C453.072 206.606 453.226 206.13 453.226 205.514V201.244H455.2ZM459.094 202.448C459.346 202.037 459.673 201.715 460.074 201.482C460.485 201.249 460.951 201.132 461.474 201.132V203.19H460.956C460.34 203.19 459.873 203.335 459.556 203.624C459.248 203.913 459.094 204.417 459.094 205.136V209H457.134V201.244H459.094V202.448ZM467.092 201.132C468.016 201.132 468.763 201.426 469.332 202.014C469.901 202.593 470.186 203.405 470.186 204.45V209H468.226V204.716C468.226 204.1 468.072 203.629 467.764 203.302C467.456 202.966 467.036 202.798 466.504 202.798C465.963 202.798 465.533 202.966 465.216 203.302C464.908 203.629 464.754 204.1 464.754 204.716V209H462.794V201.244H464.754V202.21C465.015 201.874 465.347 201.613 465.748 201.426C466.159 201.23 466.607 201.132 467.092 201.132ZM479.26 204.954C479.26 205.234 479.241 205.486 479.204 205.71H473.534C473.581 206.27 473.777 206.709 474.122 207.026C474.467 207.343 474.892 207.502 475.396 207.502C476.124 207.502 476.642 207.189 476.95 206.564H479.064C478.84 207.311 478.411 207.927 477.776 208.412C477.141 208.888 476.362 209.126 475.438 209.126C474.691 209.126 474.019 208.963 473.422 208.636C472.834 208.3 472.372 207.829 472.036 207.222C471.709 206.615 471.546 205.915 471.546 205.122C471.546 204.319 471.709 203.615 472.036 203.008C472.363 202.401 472.82 201.935 473.408 201.608C473.996 201.281 474.673 201.118 475.438 201.118C476.175 201.118 476.833 201.277 477.412 201.594C478 201.911 478.453 202.364 478.77 202.952C479.097 203.531 479.26 204.198 479.26 204.954ZM477.23 204.394C477.221 203.89 477.039 203.489 476.684 203.19C476.329 202.882 475.895 202.728 475.382 202.728C474.897 202.728 474.486 202.877 474.15 203.176C473.823 203.465 473.623 203.871 473.548 204.394H477.23ZM488.111 201.244L483.309 212.668H481.223L482.903 208.804L479.795 201.244H481.993L483.995 206.662L486.025 201.244H488.111ZM497.039 199.088C497.991 199.088 498.836 199.303 499.573 199.732C500.32 200.152 500.898 200.745 501.309 201.51C501.729 202.266 501.939 203.129 501.939 204.1C501.939 205.071 501.729 205.939 501.309 206.704C500.898 207.46 500.32 208.053 499.573 208.482C498.836 208.902 497.991 209.112 497.039 209.112C496.078 209.112 495.224 208.902 494.477 208.482C493.74 208.053 493.161 207.46 492.741 206.704C492.33 205.939 492.125 205.071 492.125 204.1C492.125 203.129 492.33 202.266 492.741 201.51C493.161 200.745 493.74 200.152 494.477 199.732C495.224 199.303 496.078 199.088 497.039 199.088ZM497.039 199.802C496.199 199.802 495.466 199.979 494.841 200.334C494.216 200.679 493.735 201.179 493.399 201.832C493.063 202.476 492.895 203.232 492.895 204.1C492.895 204.959 493.063 205.715 493.399 206.368C493.735 207.012 494.216 207.516 494.841 207.88C495.466 208.235 496.199 208.412 497.039 208.412C497.87 208.412 498.598 208.235 499.223 207.88C499.848 207.516 500.329 207.012 500.665 206.368C501.001 205.715 501.169 204.959 501.169 204.1C501.169 203.232 501.001 202.476 500.665 201.832C500.329 201.179 499.848 200.679 499.223 200.334C498.607 199.979 497.879 199.802 497.039 199.802ZM497.025 200.908C496.437 200.908 495.91 201.039 495.443 201.3C494.976 201.561 494.608 201.935 494.337 202.42C494.076 202.896 493.945 203.451 493.945 204.086C493.945 204.721 494.076 205.281 494.337 205.766C494.608 206.251 494.976 206.625 495.443 206.886C495.91 207.147 496.437 207.278 497.025 207.278C497.744 207.278 498.364 207.082 498.887 206.69C499.41 206.289 499.75 205.761 499.909 205.108H498.187C498.084 205.369 497.935 205.57 497.739 205.71C497.552 205.85 497.3 205.92 496.983 205.92C496.554 205.92 496.213 205.766 495.961 205.458C495.718 205.141 495.597 204.683 495.597 204.086C495.597 203.489 495.718 203.036 495.961 202.728C496.213 202.42 496.554 202.266 496.983 202.266C497.282 202.266 497.534 202.336 497.739 202.476C497.954 202.616 498.103 202.817 498.187 203.078H499.909C499.75 202.406 499.41 201.879 498.887 201.496C498.374 201.104 497.753 200.908 497.025 200.908ZM507.223 206.788C508.119 206.041 508.833 205.421 509.365 204.926C509.897 204.422 510.341 203.899 510.695 203.358C511.05 202.817 511.227 202.285 511.227 201.762C511.227 201.286 511.115 200.913 510.891 200.642C510.667 200.371 510.322 200.236 509.855 200.236C509.389 200.236 509.029 200.395 508.777 200.712C508.525 201.02 508.395 201.445 508.385 201.986H506.481C506.519 200.866 506.85 200.017 507.475 199.438C508.11 198.859 508.913 198.57 509.883 198.57C510.947 198.57 511.764 198.855 512.333 199.424C512.903 199.984 513.187 200.726 513.187 201.65C513.187 202.378 512.991 203.073 512.599 203.736C512.207 204.399 511.759 204.977 511.255 205.472C510.751 205.957 510.093 206.545 509.281 207.236H513.411V208.86H506.495V207.404L507.223 206.788ZM514.646 203.764C514.646 202.149 514.936 200.885 515.514 199.97C516.102 199.055 517.073 198.598 518.426 198.598C519.78 198.598 520.746 199.055 521.324 199.97C521.912 200.885 522.206 202.149 522.206 203.764C522.206 205.388 521.912 206.662 521.324 207.586C520.746 208.51 519.78 208.972 518.426 208.972C517.073 208.972 516.102 208.51 515.514 207.586C514.936 206.662 514.646 205.388 514.646 203.764ZM520.274 203.764C520.274 203.073 520.228 202.495 520.134 202.028C520.05 201.552 519.873 201.165 519.602 200.866C519.341 200.567 518.949 200.418 518.426 200.418C517.904 200.418 517.507 200.567 517.236 200.866C516.975 201.165 516.798 201.552 516.704 202.028C516.62 202.495 516.578 203.073 516.578 203.764C516.578 204.473 516.62 205.071 516.704 205.556C516.788 206.032 516.966 206.419 517.236 206.718C517.507 207.007 517.904 207.152 518.426 207.152C518.949 207.152 519.346 207.007 519.616 206.718C519.887 206.419 520.064 206.032 520.148 205.556C520.232 205.071 520.274 204.473 520.274 203.764ZM523.459 200.6V198.794H526.833V209H524.817V200.6H523.459ZM535.265 200.278L531.541 209H529.553L533.305 200.502H528.517V198.822H535.265V200.278ZM537.531 209.098C537.177 209.098 536.883 208.991 536.649 208.776C536.425 208.552 536.313 208.277 536.313 207.95C536.313 207.623 536.425 207.353 536.649 207.138C536.883 206.914 537.177 206.802 537.531 206.802C537.877 206.802 538.161 206.914 538.385 207.138C538.609 207.353 538.721 207.623 538.721 207.95C538.721 208.277 538.609 208.552 538.385 208.776C538.161 208.991 537.877 209.098 537.531 209.098ZM549.628 207.138H545.736L545.092 209H543.034L546.548 199.214H548.83L552.344 209H550.272L549.628 207.138ZM549.096 205.57L547.682 201.482L546.268 205.57H549.096ZM555.617 198.64V209H553.657V198.64H555.617ZM559.514 198.64V209H557.554V198.64H559.514ZM569.826 209L567.67 205.192H566.746V209H564.786V199.228H568.454C569.21 199.228 569.854 199.363 570.386 199.634C570.918 199.895 571.315 200.255 571.576 200.712C571.847 201.16 571.982 201.664 571.982 202.224C571.982 202.868 571.796 203.451 571.422 203.974C571.049 204.487 570.494 204.842 569.756 205.038L572.094 209H569.826ZM566.746 203.722H568.384C568.916 203.722 569.313 203.596 569.574 203.344C569.836 203.083 569.966 202.723 569.966 202.266C569.966 201.818 569.836 201.473 569.574 201.23C569.313 200.978 568.916 200.852 568.384 200.852H566.746V203.722ZM574.749 200.32C574.404 200.32 574.114 200.213 573.881 199.998C573.657 199.774 573.545 199.499 573.545 199.172C573.545 198.845 573.657 198.575 573.881 198.36C574.114 198.136 574.404 198.024 574.749 198.024C575.094 198.024 575.379 198.136 575.603 198.36C575.836 198.575 575.953 198.845 575.953 199.172C575.953 199.499 575.836 199.774 575.603 199.998C575.379 200.213 575.094 200.32 574.749 200.32ZM575.715 201.244V209H573.755V201.244H575.715ZM580.69 201.118C581.268 201.118 581.777 201.235 582.216 201.468C582.654 201.692 583 201.986 583.252 202.35V201.244H585.226V209.056C585.226 209.775 585.081 210.414 584.792 210.974C584.502 211.543 584.068 211.991 583.49 212.318C582.911 212.654 582.211 212.822 581.39 212.822C580.288 212.822 579.383 212.565 578.674 212.052C577.974 211.539 577.577 210.839 577.484 209.952H579.43C579.532 210.307 579.752 210.587 580.088 210.792C580.433 211.007 580.848 211.114 581.334 211.114C581.903 211.114 582.365 210.941 582.72 210.596C583.074 210.26 583.252 209.747 583.252 209.056V207.852C583 208.216 582.65 208.519 582.202 208.762C581.763 209.005 581.259 209.126 580.69 209.126C580.036 209.126 579.439 208.958 578.898 208.622C578.356 208.286 577.927 207.815 577.61 207.208C577.302 206.592 577.148 205.887 577.148 205.094C577.148 204.31 577.302 203.615 577.61 203.008C577.927 202.401 578.352 201.935 578.884 201.608C579.425 201.281 580.027 201.118 580.69 201.118ZM583.252 205.122C583.252 204.646 583.158 204.24 582.972 203.904C582.785 203.559 582.533 203.297 582.216 203.12C581.898 202.933 581.558 202.84 581.194 202.84C580.83 202.84 580.494 202.929 580.186 203.106C579.878 203.283 579.626 203.545 579.43 203.89C579.243 204.226 579.15 204.627 579.15 205.094C579.15 205.561 579.243 205.971 579.43 206.326C579.626 206.671 579.878 206.937 580.186 207.124C580.503 207.311 580.839 207.404 581.194 207.404C581.558 207.404 581.898 207.315 582.216 207.138C582.533 206.951 582.785 206.69 582.972 206.354C583.158 206.009 583.252 205.598 583.252 205.122ZM591.508 201.132C592.096 201.132 592.618 201.263 593.076 201.524C593.533 201.776 593.888 202.154 594.14 202.658C594.401 203.153 594.532 203.75 594.532 204.45V209H592.572V204.716C592.572 204.1 592.418 203.629 592.11 203.302C591.802 202.966 591.382 202.798 590.85 202.798C590.308 202.798 589.879 202.966 589.562 203.302C589.254 203.629 589.1 204.1 589.1 204.716V209H587.14V198.64H589.1V202.21C589.352 201.874 589.688 201.613 590.108 201.426C590.528 201.23 590.994 201.132 591.508 201.132ZM598.678 202.854V206.606C598.678 206.867 598.738 207.059 598.86 207.18C598.99 207.292 599.205 207.348 599.504 207.348H600.414V209H599.182C597.53 209 596.704 208.197 596.704 206.592V202.854H595.78V201.244H596.704V199.326H598.678V201.244H600.414V202.854H598.678ZM604.791 209.126C604.157 209.126 603.587 209.014 603.083 208.79C602.579 208.557 602.178 208.244 601.879 207.852C601.59 207.46 601.431 207.026 601.403 206.55H603.377C603.415 206.849 603.559 207.096 603.811 207.292C604.073 207.488 604.395 207.586 604.777 207.586C605.151 207.586 605.44 207.511 605.645 207.362C605.86 207.213 605.967 207.021 605.967 206.788C605.967 206.536 605.837 206.349 605.575 206.228C605.323 206.097 604.917 205.957 604.357 205.808C603.779 205.668 603.303 205.523 602.929 205.374C602.565 205.225 602.248 204.996 601.977 204.688C601.716 204.38 601.585 203.965 601.585 203.442C601.585 203.013 601.707 202.621 601.949 202.266C602.201 201.911 602.556 201.631 603.013 201.426C603.48 201.221 604.026 201.118 604.651 201.118C605.575 201.118 606.313 201.351 606.863 201.818C607.414 202.275 607.717 202.896 607.773 203.68H605.897C605.869 203.372 605.739 203.129 605.505 202.952C605.281 202.765 604.978 202.672 604.595 202.672C604.241 202.672 603.965 202.737 603.769 202.868C603.583 202.999 603.489 203.181 603.489 203.414C603.489 203.675 603.62 203.876 603.881 204.016C604.143 204.147 604.549 204.282 605.099 204.422C605.659 204.562 606.121 204.707 606.485 204.856C606.849 205.005 607.162 205.239 607.423 205.556C607.694 205.864 607.834 206.275 607.843 206.788C607.843 207.236 607.717 207.637 607.465 207.992C607.223 208.347 606.868 208.627 606.401 208.832C605.944 209.028 605.407 209.126 604.791 209.126ZM617.828 209L615.672 205.192H614.748V209H612.788V199.228H616.456C617.212 199.228 617.856 199.363 618.388 199.634C618.92 199.895 619.317 200.255 619.578 200.712C619.849 201.16 619.984 201.664 619.984 202.224C619.984 202.868 619.798 203.451 619.424 203.974C619.051 204.487 618.496 204.842 617.758 205.038L620.096 209H617.828ZM614.748 203.722H616.386C616.918 203.722 617.315 203.596 617.576 203.344C617.838 203.083 617.968 202.723 617.968 202.266C617.968 201.818 617.838 201.473 617.576 201.23C617.315 200.978 616.918 200.852 616.386 200.852H614.748V203.722ZM628.967 204.954C628.967 205.234 628.948 205.486 628.911 205.71H623.241C623.288 206.27 623.484 206.709 623.829 207.026C624.174 207.343 624.599 207.502 625.103 207.502C625.831 207.502 626.349 207.189 626.657 206.564H628.771C628.547 207.311 628.118 207.927 627.483 208.412C626.848 208.888 626.069 209.126 625.145 209.126C624.398 209.126 623.726 208.963 623.129 208.636C622.541 208.3 622.079 207.829 621.743 207.222C621.416 206.615 621.253 205.915 621.253 205.122C621.253 204.319 621.416 203.615 621.743 203.008C622.07 202.401 622.527 201.935 623.115 201.608C623.703 201.281 624.38 201.118 625.145 201.118C625.882 201.118 626.54 201.277 627.119 201.594C627.707 201.911 628.16 202.364 628.477 202.952C628.804 203.531 628.967 204.198 628.967 204.954ZM626.937 204.394C626.928 203.89 626.746 203.489 626.391 203.19C626.036 202.882 625.602 202.728 625.089 202.728C624.604 202.728 624.193 202.877 623.857 203.176C623.53 203.465 623.33 203.871 623.255 204.394H626.937ZM633.366 209.126C632.731 209.126 632.162 209.014 631.658 208.79C631.154 208.557 630.752 208.244 630.454 207.852C630.164 207.46 630.006 207.026 629.978 206.55H631.952C631.989 206.849 632.134 207.096 632.386 207.292C632.647 207.488 632.969 207.586 633.352 207.586C633.725 207.586 634.014 207.511 634.22 207.362C634.434 207.213 634.542 207.021 634.542 206.788C634.542 206.536 634.411 206.349 634.15 206.228C633.898 206.097 633.492 205.957 632.932 205.808C632.353 205.668 631.877 205.523 631.504 205.374C631.14 205.225 630.822 204.996 630.552 204.688C630.29 204.38 630.16 203.965 630.16 203.442C630.16 203.013 630.281 202.621 630.524 202.266C630.776 201.911 631.13 201.631 631.588 201.426C632.054 201.221 632.6 201.118 633.226 201.118C634.15 201.118 634.887 201.351 635.438 201.818C635.988 202.275 636.292 202.896 636.348 203.68H634.472C634.444 203.372 634.313 203.129 634.08 202.952C633.856 202.765 633.552 202.672 633.17 202.672C632.815 202.672 632.54 202.737 632.344 202.868C632.157 202.999 632.064 203.181 632.064 203.414C632.064 203.675 632.194 203.876 632.456 204.016C632.717 204.147 633.123 204.282 633.674 204.422C634.234 204.562 634.696 204.707 635.06 204.856C635.424 205.005 635.736 205.239 635.998 205.556C636.268 205.864 636.408 206.275 636.418 206.788C636.418 207.236 636.292 207.637 636.04 207.992C635.797 208.347 635.442 208.627 634.976 208.832C634.518 209.028 633.982 209.126 633.366 209.126ZM645.237 204.954C645.237 205.234 645.218 205.486 645.181 205.71H639.511C639.557 206.27 639.753 206.709 640.099 207.026C640.444 207.343 640.869 207.502 641.373 207.502C642.101 207.502 642.619 207.189 642.927 206.564H645.041C644.817 207.311 644.387 207.927 643.753 208.412C643.118 208.888 642.339 209.126 641.415 209.126C640.668 209.126 639.996 208.963 639.399 208.636C638.811 208.3 638.349 207.829 638.013 207.222C637.686 206.615 637.523 205.915 637.523 205.122C637.523 204.319 637.686 203.615 638.013 203.008C638.339 202.401 638.797 201.935 639.385 201.608C639.973 201.281 640.649 201.118 641.415 201.118C642.152 201.118 642.81 201.277 643.389 201.594C643.977 201.911 644.429 202.364 644.747 202.952C645.073 203.531 645.237 204.198 645.237 204.954ZM643.207 204.394C643.197 203.89 643.015 203.489 642.661 203.19C642.306 202.882 641.872 202.728 641.359 202.728C640.873 202.728 640.463 202.877 640.127 203.176C639.8 203.465 639.599 203.871 639.525 204.394H643.207ZM648.627 202.448C648.879 202.037 649.206 201.715 649.607 201.482C650.018 201.249 650.485 201.132 651.007 201.132V203.19H650.489C649.873 203.19 649.407 203.335 649.089 203.624C648.781 203.913 648.627 204.417 648.627 205.136V209H646.667V201.244H648.627V202.448ZM655.561 207.194L657.521 201.244H659.607L656.737 209H654.357L651.501 201.244H653.601L655.561 207.194ZM667.918 204.954C667.918 205.234 667.9 205.486 667.862 205.71H662.192C662.239 206.27 662.435 206.709 662.78 207.026C663.126 207.343 663.55 207.502 664.054 207.502C664.782 207.502 665.3 207.189 665.608 206.564H667.722C667.498 207.311 667.069 207.927 666.434 208.412C665.8 208.888 665.02 209.126 664.096 209.126C663.35 209.126 662.678 208.963 662.08 208.636C661.492 208.3 661.03 207.829 660.694 207.222C660.368 206.615 660.204 205.915 660.204 205.122C660.204 204.319 660.368 203.615 660.694 203.008C661.021 202.401 661.478 201.935 662.066 201.608C662.654 201.281 663.331 201.118 664.096 201.118C664.834 201.118 665.492 201.277 666.07 201.594C666.658 201.911 667.111 202.364 667.428 202.952C667.755 203.531 667.918 204.198 667.918 204.954ZM665.888 204.394C665.879 203.89 665.697 203.489 665.342 203.19C664.988 202.882 664.554 202.728 664.04 202.728C663.555 202.728 663.144 202.877 662.808 203.176C662.482 203.465 662.281 203.871 662.206 204.394H665.888ZM668.845 205.094C668.845 204.31 668.999 203.615 669.307 203.008C669.624 202.401 670.053 201.935 670.595 201.608C671.136 201.281 671.738 201.118 672.401 201.118C672.905 201.118 673.385 201.23 673.843 201.454C674.3 201.669 674.664 201.958 674.935 202.322V198.64H676.923V209H674.935V207.852C674.692 208.235 674.351 208.543 673.913 208.776C673.474 209.009 672.965 209.126 672.387 209.126C671.733 209.126 671.136 208.958 670.595 208.622C670.053 208.286 669.624 207.815 669.307 207.208C668.999 206.592 668.845 205.887 668.845 205.094ZM674.949 205.122C674.949 204.646 674.855 204.24 674.669 203.904C674.482 203.559 674.23 203.297 673.913 203.12C673.595 202.933 673.255 202.84 672.891 202.84C672.527 202.84 672.191 202.929 671.883 203.106C671.575 203.283 671.323 203.545 671.127 203.89C670.94 204.226 670.847 204.627 670.847 205.094C670.847 205.561 670.94 205.971 671.127 206.326C671.323 206.671 671.575 206.937 671.883 207.124C672.2 207.311 672.536 207.404 672.891 207.404C673.255 207.404 673.595 207.315 673.913 207.138C674.23 206.951 674.482 206.69 674.669 206.354C674.855 206.009 674.949 205.598 674.949 205.122ZM679.705 209.098C679.35 209.098 679.056 208.991 678.823 208.776C678.599 208.552 678.487 208.277 678.487 207.95C678.487 207.623 678.599 207.353 678.823 207.138C679.056 206.914 679.35 206.802 679.705 206.802C680.05 206.802 680.335 206.914 680.559 207.138C680.783 207.353 680.895 207.623 680.895 207.95C680.895 208.277 680.783 208.552 680.559 208.776C680.335 208.991 680.05 209.098 679.705 209.098Z" fill="white"/>
<rect width="202" height="40" transform="translate(430 134)" fill="#303030"/>
<path d="M493.092 148.134V156.464C493.092 157.62 492.758 158.521 492.089 159.167C491.42 159.802 490.525 160.119 489.403 160.119C488.27 160.119 487.352 159.79 486.649 159.133C485.958 158.476 485.612 157.558 485.612 156.379H487.992C488.003 156.889 488.122 157.286 488.349 157.569C488.587 157.852 488.927 157.994 489.369 157.994C489.8 157.994 490.128 157.858 490.355 157.586C490.582 157.314 490.695 156.94 490.695 156.464V148.134H493.092ZM511.376 160.119C510.266 160.119 509.246 159.858 508.316 159.337C507.387 158.816 506.65 158.096 506.106 157.178C505.562 156.249 505.29 155.2 505.29 154.033C505.29 152.877 505.562 151.84 506.106 150.922C506.65 149.993 507.387 149.267 508.316 148.746C509.246 148.225 510.266 147.964 511.376 147.964C512.498 147.964 513.518 148.225 514.436 148.746C515.366 149.267 516.097 149.993 516.629 150.922C517.173 151.84 517.445 152.877 517.445 154.033C517.445 155.2 517.173 156.249 516.629 157.178C516.097 158.096 515.366 158.816 514.436 159.337C513.507 159.858 512.487 160.119 511.376 160.119ZM511.376 157.994C512.09 157.994 512.719 157.835 513.263 157.518C513.807 157.189 514.232 156.725 514.538 156.124C514.844 155.523 514.997 154.826 514.997 154.033C514.997 153.24 514.844 152.548 514.538 151.959C514.232 151.358 513.807 150.899 513.263 150.582C512.719 150.265 512.09 150.106 511.376 150.106C510.662 150.106 510.028 150.265 509.472 150.582C508.928 150.899 508.503 151.358 508.197 151.959C507.891 152.548 507.738 153.24 507.738 154.033C507.738 154.826 507.891 155.523 508.197 156.124C508.503 156.725 508.928 157.189 509.472 157.518C510.028 157.835 510.662 157.994 511.376 157.994ZM531.562 148.134V155.478C531.562 156.283 531.772 156.9 532.191 157.331C532.61 157.75 533.2 157.96 533.959 157.96C534.73 157.96 535.325 157.75 535.744 157.331C536.163 156.9 536.373 156.283 536.373 155.478V148.134H538.77V155.461C538.77 156.47 538.549 157.325 538.107 158.028C537.676 158.719 537.093 159.241 536.356 159.592C535.631 159.943 534.82 160.119 533.925 160.119C533.041 160.119 532.236 159.943 531.511 159.592C530.797 159.241 530.23 158.719 529.811 158.028C529.392 157.325 529.182 156.47 529.182 155.461V148.134H531.562ZM557.189 160L554.571 155.376H553.449V160H551.069V148.134H555.523C556.441 148.134 557.223 148.298 557.869 148.627C558.515 148.944 558.997 149.381 559.314 149.936C559.643 150.48 559.807 151.092 559.807 151.772C559.807 152.554 559.581 153.262 559.127 153.897C558.674 154.52 558 154.951 557.104 155.189L559.943 160H557.189ZM553.449 153.591H555.438C556.084 153.591 556.566 153.438 556.883 153.132C557.201 152.815 557.359 152.378 557.359 151.823C557.359 151.279 557.201 150.86 556.883 150.565C556.566 150.259 556.084 150.106 555.438 150.106H553.449V153.591ZM582.109 160H579.729L574.34 151.857V160H571.96V148.117H574.34L579.729 156.277V148.117H582.109V160ZM596.841 150.055V153.03H600.836V154.917H596.841V158.062H601.346V160H594.461V148.117H601.346V150.055H596.841ZM622.944 148.134L618.932 155.869V160H616.552V155.869L612.523 148.134H615.209L617.759 153.557L620.292 148.134H622.944Z" fill="white"/>
<path fill-rule="evenodd" clip-rule="evenodd" d="M441.315 148.066C451.624 144.522 466.822 139.296 467.28 139.139C467.966 138.903 468.42 139.311 468.262 139.98C468.14 140.495 462.648 163.588 462.45 164.419C462.282 165.124 461.528 165.375 460.946 165.071C460.282 164.724 450.982 159.838 450.982 159.838L449.784 159.21L450.688 158.228V158.224C450.688 158.224 466.216 141.842 466.43 141.613C466.644 141.387 466.304 140.991 466.008 141.202C465.716 141.412 444.04 156.94 444.04 156.94L439.54 155.182C439.54 155.182 432.75 152.529 431.948 152.214C431.274 151.953 431.4 151.475 431.968 151.28C432.192 151.203 436.137 149.847 441.315 148.066ZM444.662 167.762C444.278 168.101 444 167.967 444 167.487V159.557L450.362 162.765C450.362 162.765 445.164 167.315 444.662 167.762Z" fill="white"/>
<mask id="mask0" mask-type="alpha" maskUnits="userSpaceOnUse" x="431" y="139" width="38" height="29">
<path fill-rule="evenodd" clip-rule="evenodd" d="M441.315 148.066C451.624 144.522 466.822 139.296 467.28 139.139C467.966 138.903 468.42 139.311 468.262 139.98C468.14 140.495 462.648 163.588 462.45 164.419C462.282 165.124 461.528 165.375 460.946 165.071C460.282 164.724 450.982 159.838 450.982 159.838L449.784 159.21L450.688 158.228V158.224C450.688 158.224 466.216 141.842 466.43 141.613C466.644 141.387 466.304 140.991 466.008 141.202C465.716 141.412 444.04 156.94 444.04 156.94L439.54 155.182C439.54 155.182 432.75 152.529 431.948 152.214C431.274 151.953 431.4 151.475 431.968 151.28C432.192 151.203 436.137 149.847 441.315 148.066ZM444.662 167.762C444.278 168.101 444 167.967 444 167.487V159.557L450.362 162.765C450.362 162.765 445.164 167.315 444.662 167.762Z" fill="white"/>
</mask>
<g mask="url(#mask0)">
<rect x="430" y="134" width="45" height="39.0244" fill="#0076FF"/>
</g>
</svg>
