<svg width="1905" height="563" viewBox="0 0 1905 563" fill="none" xmlns="http://www.w3.org/2000/svg">
<g filter="url(#filter0_d)">
<rect x="4" width="2000" height="555" fill="#0076FF"/>
<rect x="434" y="342" width="200" height="58" fill="#0076FF"/>
<path d="M506.62 371.24C507.271 371.379 507.793 371.704 508.188 372.216C508.583 372.717 508.78 373.293 508.78 373.944C508.78 374.883 508.449 375.629 507.788 376.184C507.137 376.728 506.225 377 505.052 377H499.82V365.768H504.876C506.017 365.768 506.908 366.029 507.548 366.552C508.199 367.075 508.524 367.784 508.524 368.68C508.524 369.341 508.348 369.891 507.996 370.328C507.655 370.765 507.196 371.069 506.62 371.24ZM502.556 370.312H504.348C504.796 370.312 505.137 370.216 505.372 370.024C505.617 369.821 505.74 369.528 505.74 369.144C505.74 368.76 505.617 368.467 505.372 368.264C505.137 368.061 504.796 367.96 504.348 367.96H502.556V370.312ZM504.572 374.792C505.031 374.792 505.383 374.691 505.628 374.488C505.884 374.275 506.012 373.971 506.012 373.576C506.012 373.181 505.879 372.872 505.612 372.648C505.356 372.424 504.999 372.312 504.54 372.312H502.556V374.792H504.572ZM514.055 365.768V372.488C514.055 373.16 514.22 373.677 514.551 374.04C514.882 374.403 515.367 374.584 516.007 374.584C516.647 374.584 517.138 374.403 517.479 374.04C517.82 373.677 517.991 373.16 517.991 372.488V365.768H520.727V372.472C520.727 373.475 520.514 374.323 520.087 375.016C519.66 375.709 519.084 376.232 518.359 376.584C517.644 376.936 516.844 377.112 515.959 377.112C515.074 377.112 514.279 376.941 513.575 376.6C512.882 376.248 512.332 375.725 511.927 375.032C511.522 374.328 511.319 373.475 511.319 372.472V365.768H514.055ZM531.728 365.768V367.96H528.752V377H526.016V367.96H523.04V365.768H531.728ZM542.181 365.768V367.96H539.205V377H536.469V367.96H533.493V365.768H542.181ZM549.867 377.112C548.811 377.112 547.84 376.867 546.955 376.376C546.08 375.885 545.381 375.203 544.859 374.328C544.346 373.443 544.09 372.451 544.09 371.352C544.09 370.253 544.346 369.267 544.859 368.392C545.381 367.517 546.08 366.835 546.955 366.344C547.84 365.853 548.811 365.608 549.867 365.608C550.923 365.608 551.888 365.853 552.763 366.344C553.648 366.835 554.341 367.517 554.843 368.392C555.355 369.267 555.611 370.253 555.611 371.352C555.611 372.451 555.355 373.443 554.843 374.328C554.331 375.203 553.637 375.885 552.763 376.376C551.888 376.867 550.923 377.112 549.867 377.112ZM549.867 374.616C550.763 374.616 551.477 374.317 552.01 373.72C552.555 373.123 552.827 372.333 552.827 371.352C552.827 370.36 552.555 369.571 552.01 368.984C551.477 368.387 550.763 368.088 549.867 368.088C548.96 368.088 548.235 368.381 547.691 368.968C547.157 369.555 546.891 370.349 546.891 371.352C546.891 372.344 547.157 373.139 547.691 373.736C548.235 374.323 548.96 374.616 549.867 374.616ZM568.181 377H565.445L560.869 370.072V377H558.133V365.768H560.869L565.445 372.728V365.768H568.181V377Z" fill="white"/>
<g clip-path="url(#clip0)">
<path d="M443.728 233.672L450.448 222.44L452.848 223.848L445.136 236.488V245H442.096V236.488L434.32 223.848L436.88 222.312L443.728 233.672ZM456.335 237.864C456.527 239.421 457.071 240.637 457.967 241.512C458.863 242.387 460.047 242.824 461.519 242.824C462.479 242.824 463.343 242.728 464.111 242.536C464.879 242.323 465.615 242.056 466.319 241.736L466.991 244.2C466.223 244.563 465.359 244.851 464.399 245.064C463.439 245.277 462.362 245.384 461.167 245.384C459.973 245.384 458.895 245.192 457.935 244.808C456.975 244.403 456.154 243.837 455.471 243.112C454.81 242.365 454.298 241.459 453.935 240.392C453.573 239.304 453.391 238.067 453.391 236.68C453.391 235.443 453.573 234.291 453.935 233.224C454.298 232.157 454.81 231.24 455.471 230.472C456.133 229.683 456.922 229.075 457.839 228.648C458.757 228.2 459.781 227.976 460.911 227.976C462.106 227.976 463.151 228.179 464.047 228.584C464.943 228.989 465.69 229.544 466.287 230.248C466.885 230.952 467.333 231.773 467.631 232.712C467.93 233.651 468.079 234.643 468.079 235.688C468.079 236.435 468.047 237.16 467.983 237.864H456.335ZM460.847 230.472C459.589 230.472 458.554 230.899 457.743 231.752C456.954 232.605 456.474 233.864 456.303 235.528H465.423C465.423 233.907 465.018 232.659 464.207 231.784C463.397 230.909 462.277 230.472 460.847 230.472ZM472.583 241.256C473.137 241.747 473.831 242.141 474.663 242.44C475.516 242.739 476.423 242.888 477.383 242.888C478.577 242.888 479.473 242.696 480.071 242.312C480.689 241.907 480.999 241.395 480.999 240.776C480.999 240.456 480.935 240.157 480.807 239.88C480.7 239.603 480.487 239.336 480.167 239.08C479.868 238.824 479.452 238.579 478.919 238.344C478.385 238.088 477.692 237.811 476.839 237.512C475.26 236.979 474.087 236.349 473.319 235.624C472.551 234.877 472.167 233.853 472.167 232.552C472.167 231.912 472.305 231.315 472.583 230.76C472.881 230.205 473.297 229.725 473.831 229.32C474.385 228.893 475.047 228.563 475.815 228.328C476.604 228.093 477.5 227.976 478.503 227.976C479.591 227.976 480.54 228.093 481.351 228.328C482.183 228.541 482.929 228.819 483.591 229.16L482.791 231.528C482.215 231.187 481.553 230.909 480.807 230.696C480.081 230.483 479.271 230.376 478.375 230.376C477.265 230.376 476.423 230.6 475.847 231.048C475.271 231.496 474.983 231.987 474.983 232.52C474.983 232.776 475.025 233.011 475.111 233.224C475.217 233.437 475.399 233.64 475.655 233.832C475.911 234.024 476.252 234.216 476.679 234.408C477.105 234.6 477.639 234.803 478.279 235.016C479.324 235.379 480.209 235.752 480.935 236.136C481.66 236.499 482.247 236.904 482.695 237.352C483.143 237.8 483.463 238.291 483.655 238.824C483.847 239.336 483.943 239.912 483.943 240.552C483.943 241.299 483.783 241.971 483.463 242.568C483.143 243.165 482.695 243.677 482.119 244.104C481.543 244.509 480.839 244.819 480.007 245.032C479.196 245.267 478.289 245.384 477.287 245.384C476.007 245.384 474.865 245.224 473.863 244.904C472.86 244.584 472.028 244.168 471.367 243.656L472.583 241.256ZM488.76 243.24C488.76 242.579 488.942 242.056 489.304 241.672C489.688 241.288 490.222 241.096 490.904 241.096C491.459 241.096 491.95 241.309 492.376 241.736C492.824 242.163 493.048 242.664 493.048 243.24C493.048 243.88 492.846 244.403 492.44 244.808C492.035 245.192 491.523 245.384 490.904 245.384C490.328 245.384 489.827 245.171 489.4 244.744C488.974 244.317 488.76 243.816 488.76 243.24ZM509.949 245V222.6H512.989V245H509.949ZM520.643 223.72H522.851V228.968H527.459V231.464H522.851V239.496C522.851 240.115 522.915 240.637 523.043 241.064C523.192 241.491 523.384 241.832 523.619 242.088C523.854 242.344 524.131 242.536 524.451 242.664C524.792 242.771 525.144 242.824 525.507 242.824C526.04 242.824 526.542 242.739 527.011 242.568C527.48 242.397 527.928 242.195 528.355 241.96L529.155 244.264C528.728 244.52 528.152 244.765 527.427 245C526.702 245.256 525.944 245.384 525.155 245.384C523.555 245.384 522.286 244.861 521.347 243.816C520.43 242.771 519.971 241.256 519.971 239.272V231.464H517.091V228.968H520.035L520.643 223.72ZM531.658 222.984C531.658 222.365 531.861 221.875 532.266 221.512C532.672 221.128 533.184 220.936 533.802 220.936C534.549 220.936 535.157 221.181 535.626 221.672C536.117 222.163 536.362 222.867 536.362 223.784C536.362 224.765 536.074 225.736 535.498 226.696C534.944 227.635 534.154 228.381 533.13 228.936L532.394 227.816C532.949 227.432 533.386 227.005 533.706 226.536C534.048 226.067 534.272 225.523 534.378 224.904C534.186 224.989 533.962 225.032 533.706 225.032C533.109 225.032 532.618 224.84 532.234 224.456C531.85 224.072 531.658 223.581 531.658 222.984ZM540.853 241.256C541.408 241.747 542.101 242.141 542.933 242.44C543.787 242.739 544.693 242.888 545.653 242.888C546.848 242.888 547.744 242.696 548.341 242.312C548.96 241.907 549.269 241.395 549.269 240.776C549.269 240.456 549.205 240.157 549.077 239.88C548.971 239.603 548.757 239.336 548.437 239.08C548.139 238.824 547.723 238.579 547.189 238.344C546.656 238.088 545.963 237.811 545.109 237.512C543.531 236.979 542.357 236.349 541.589 235.624C540.821 234.877 540.437 233.853 540.437 232.552C540.437 231.912 540.576 231.315 540.853 230.76C541.152 230.205 541.568 229.725 542.101 229.32C542.656 228.893 543.317 228.563 544.085 228.328C544.875 228.093 545.771 227.976 546.773 227.976C547.861 227.976 548.811 228.093 549.621 228.328C550.453 228.541 551.2 228.819 551.861 229.16L551.061 231.528C550.485 231.187 549.824 230.909 549.077 230.696C548.352 230.483 547.541 230.376 546.645 230.376C545.536 230.376 544.693 230.6 544.117 231.048C543.541 231.496 543.253 231.987 543.253 232.52C543.253 232.776 543.296 233.011 543.381 233.224C543.488 233.437 543.669 233.64 543.925 233.832C544.181 234.024 544.523 234.216 544.949 234.408C545.376 234.6 545.909 234.803 546.549 235.016C547.595 235.379 548.48 235.752 549.205 236.136C549.931 236.499 550.517 236.904 550.965 237.352C551.413 237.8 551.733 238.291 551.925 238.824C552.117 239.336 552.213 239.912 552.213 240.552C552.213 241.299 552.053 241.971 551.733 242.568C551.413 243.165 550.965 243.677 550.389 244.104C549.813 244.509 549.109 244.819 548.277 245.032C547.467 245.267 546.56 245.384 545.557 245.384C544.277 245.384 543.136 245.224 542.133 244.904C541.131 244.584 540.299 244.168 539.637 243.656L540.853 241.256ZM565.178 229.128L567.802 228.04L573.466 241.736L579.13 228.04L581.594 229.128L574.874 245H571.866L565.178 229.128ZM586.568 237.864C586.76 239.421 587.304 240.637 588.2 241.512C589.096 242.387 590.28 242.824 591.752 242.824C592.712 242.824 593.576 242.728 594.344 242.536C595.112 242.323 595.848 242.056 596.552 241.736L597.224 244.2C596.456 244.563 595.592 244.851 594.632 245.064C593.672 245.277 592.595 245.384 591.4 245.384C590.205 245.384 589.128 245.192 588.168 244.808C587.208 244.403 586.387 243.837 585.704 243.112C585.043 242.365 584.531 241.459 584.168 240.392C583.805 239.304 583.624 238.067 583.624 236.68C583.624 235.443 583.805 234.291 584.168 233.224C584.531 232.157 585.043 231.24 585.704 230.472C586.365 229.683 587.155 229.075 588.072 228.648C588.989 228.2 590.013 227.976 591.144 227.976C592.339 227.976 593.384 228.179 594.28 228.584C595.176 228.989 595.923 229.544 596.52 230.248C597.117 230.952 597.565 231.773 597.864 232.712C598.163 233.651 598.312 234.643 598.312 235.688C598.312 236.435 598.28 237.16 598.216 237.864H586.568ZM591.08 230.472C589.821 230.472 588.787 230.899 587.976 231.752C587.187 232.605 586.707 233.864 586.536 235.528H595.656C595.656 233.907 595.251 232.659 594.44 231.784C593.629 230.909 592.509 230.472 591.08 230.472ZM612.063 231.144C611.658 230.973 611.178 230.888 610.623 230.888C610.026 230.888 609.439 231.016 608.863 231.272C608.309 231.528 607.807 231.912 607.359 232.424C606.933 232.936 606.581 233.597 606.303 234.408C606.047 235.197 605.919 236.136 605.919 237.224V245H603.039V228.36H605.823V231.976C606.015 231.464 606.271 230.963 606.591 230.472C606.911 229.981 607.285 229.555 607.711 229.192C608.159 228.829 608.671 228.541 609.247 228.328C609.823 228.093 610.463 227.976 611.167 227.976C611.487 227.976 611.797 227.997 612.095 228.04C612.415 228.061 612.693 228.104 612.927 228.168L612.063 231.144ZM617.125 252.424C616.485 252.424 615.92 252.36 615.429 252.232C614.96 252.104 614.587 251.955 614.309 251.784L614.949 249.384C615.205 249.533 615.515 249.661 615.877 249.768C616.261 249.875 616.699 249.928 617.189 249.928C617.637 249.928 618.053 249.864 618.437 249.736C618.843 249.608 619.227 249.384 619.589 249.064C619.952 248.744 620.293 248.307 620.613 247.752C620.955 247.197 621.285 246.504 621.605 245.672L622.341 243.752H620.805L614.309 229.128L616.869 227.976L623.077 241.832L627.909 228.104L630.565 229.128L624.453 245.832C623.984 247.112 623.483 248.168 622.949 249C622.437 249.853 621.883 250.536 621.285 251.048C620.688 251.56 620.037 251.912 619.333 252.104C618.651 252.317 617.915 252.424 617.125 252.424ZM646.143 223.72H648.351V228.968H652.959V231.464H648.351V239.496C648.351 240.115 648.415 240.637 648.543 241.064C648.692 241.491 648.884 241.832 649.119 242.088C649.353 242.344 649.631 242.536 649.951 242.664C650.292 242.771 650.644 242.824 651.007 242.824C651.54 242.824 652.041 242.739 652.511 242.568C652.98 242.397 653.428 242.195 653.855 241.96L654.655 244.264C654.228 244.52 653.652 244.765 652.927 245C652.201 245.256 651.444 245.384 650.655 245.384C649.055 245.384 647.785 244.861 646.847 243.816C645.929 242.771 645.471 241.256 645.471 239.272V231.464H642.591V228.968H645.535L646.143 223.72ZM667.462 231.144C667.057 230.973 666.577 230.888 666.022 230.888C665.425 230.888 664.838 231.016 664.262 231.272C663.708 231.528 663.206 231.912 662.758 232.424C662.332 232.936 661.98 233.597 661.702 234.408C661.446 235.197 661.318 236.136 661.318 237.224V245H658.438V228.36H661.222V231.976C661.414 231.464 661.67 230.963 661.99 230.472C662.31 229.981 662.684 229.555 663.11 229.192C663.558 228.829 664.07 228.541 664.646 228.328C665.222 228.093 665.862 227.976 666.566 227.976C666.886 227.976 667.196 227.997 667.494 228.04C667.814 228.061 668.092 228.104 668.326 228.168L667.462 231.144ZM686.989 245.16C685.965 245.16 685.154 244.957 684.557 244.552C683.959 244.147 683.543 243.56 683.309 242.792C682.562 243.56 681.698 244.189 680.717 244.68C679.757 245.149 678.701 245.384 677.549 245.384C676.823 245.384 676.119 245.267 675.437 245.032C674.775 244.819 674.178 244.467 673.645 243.976C673.133 243.485 672.717 242.845 672.397 242.056C672.098 241.267 671.949 240.307 671.949 239.176V228.36H674.829V238.792C674.829 240.093 675.095 241.096 675.629 241.8C676.183 242.483 677.005 242.824 678.093 242.824C678.989 242.824 679.842 242.653 680.653 242.312C681.463 241.949 682.189 241.469 682.829 240.872V228.36H685.709V240.68C685.709 241.149 685.762 241.533 685.869 241.832C685.975 242.109 686.114 242.333 686.285 242.504C686.455 242.653 686.658 242.76 686.893 242.824C687.127 242.888 687.362 242.92 687.597 242.92L686.989 245.16ZM693.822 237.864C694.014 239.421 694.558 240.637 695.454 241.512C696.35 242.387 697.534 242.824 699.006 242.824C699.966 242.824 700.83 242.728 701.598 242.536C702.366 242.323 703.102 242.056 703.806 241.736L704.478 244.2C703.71 244.563 702.846 244.851 701.886 245.064C700.926 245.277 699.848 245.384 698.654 245.384C697.459 245.384 696.382 245.192 695.422 244.808C694.462 244.403 693.64 243.837 692.958 243.112C692.296 242.365 691.784 241.459 691.422 240.392C691.059 239.304 690.878 238.067 690.878 236.68C690.878 235.443 691.059 234.291 691.422 233.224C691.784 232.157 692.296 231.24 692.958 230.472C693.619 229.683 694.408 229.075 695.326 228.648C696.243 228.2 697.267 227.976 698.398 227.976C699.592 227.976 700.638 228.179 701.534 228.584C702.43 228.989 703.176 229.544 703.774 230.248C704.371 230.952 704.819 231.773 705.118 232.712C705.416 233.651 705.566 234.643 705.566 235.688C705.566 236.435 705.534 237.16 705.47 237.864H693.822ZM698.334 230.472C697.075 230.472 696.04 230.899 695.23 231.752C694.44 232.605 693.96 233.864 693.79 235.528H702.91C702.91 233.907 702.504 232.659 701.694 231.784C700.883 230.909 699.763 230.472 698.334 230.472ZM710.389 243.24C710.389 242.579 710.57 242.056 710.933 241.672C711.317 241.288 711.85 241.096 712.533 241.096C713.087 241.096 713.578 241.309 714.005 241.736C714.453 242.163 714.677 242.664 714.677 243.24C714.677 243.88 714.474 244.403 714.069 244.808C713.663 245.192 713.151 245.384 712.533 245.384C711.957 245.384 711.455 245.171 711.029 244.744C710.602 244.317 710.389 243.816 710.389 243.24ZM729.178 223.336L732.186 222.376L737.242 241.768L742.01 224.936H745.818L750.554 241.768L755.578 222.472L758.394 223.336L752.346 245H748.57L743.834 228.168L739.034 245H735.258L729.178 223.336ZM763.19 237.864C763.382 239.421 763.926 240.637 764.822 241.512C765.718 242.387 766.902 242.824 768.374 242.824C769.334 242.824 770.198 242.728 770.966 242.536C771.734 242.323 772.47 242.056 773.174 241.736L773.846 244.2C773.078 244.563 772.214 244.851 771.254 245.064C770.294 245.277 769.216 245.384 768.022 245.384C766.827 245.384 765.75 245.192 764.79 244.808C763.83 244.403 763.008 243.837 762.326 243.112C761.664 242.365 761.152 241.459 760.79 240.392C760.427 239.304 760.246 238.067 760.246 236.68C760.246 235.443 760.427 234.291 760.79 233.224C761.152 232.157 761.664 231.24 762.326 230.472C762.987 229.683 763.776 229.075 764.694 228.648C765.611 228.2 766.635 227.976 767.766 227.976C768.96 227.976 770.006 228.179 770.902 228.584C771.798 228.989 772.544 229.544 773.142 230.248C773.739 230.952 774.187 231.773 774.486 232.712C774.784 233.651 774.934 234.643 774.934 235.688C774.934 236.435 774.902 237.16 774.838 237.864H763.19ZM767.702 230.472C766.443 230.472 765.408 230.899 764.598 231.752C763.808 232.605 763.328 233.864 763.158 235.528H772.278C772.278 233.907 771.872 232.659 771.062 231.784C770.251 230.909 769.131 230.472 767.702 230.472ZM778.381 222.984C778.381 222.365 778.583 221.875 778.989 221.512C779.394 221.128 779.906 220.936 780.525 220.936C781.271 220.936 781.879 221.181 782.349 221.672C782.839 222.163 783.085 222.867 783.085 223.784C783.085 224.765 782.797 225.736 782.221 226.696C781.666 227.635 780.877 228.381 779.853 228.936L779.117 227.816C779.671 227.432 780.109 227.005 780.429 226.536C780.77 226.067 780.994 225.523 781.101 224.904C780.909 224.989 780.685 225.032 780.429 225.032C779.831 225.032 779.341 224.84 778.957 224.456C778.573 224.072 778.381 223.581 778.381 222.984ZM796.824 231.144C796.418 230.973 795.938 230.888 795.384 230.888C794.786 230.888 794.2 231.016 793.624 231.272C793.069 231.528 792.568 231.912 792.12 232.424C791.693 232.936 791.341 233.597 791.064 234.408C790.808 235.197 790.68 236.136 790.68 237.224V245H787.8V228.36H790.584V231.976C790.776 231.464 791.032 230.963 791.352 230.472C791.672 229.981 792.045 229.555 792.472 229.192C792.92 228.829 793.432 228.541 794.008 228.328C794.584 228.093 795.224 227.976 795.928 227.976C796.248 227.976 796.557 227.997 796.856 228.04C797.176 228.061 797.453 228.104 797.688 228.168L796.824 231.144ZM802.325 237.864C802.517 239.421 803.061 240.637 803.957 241.512C804.853 242.387 806.037 242.824 807.509 242.824C808.469 242.824 809.333 242.728 810.101 242.536C810.869 242.323 811.605 242.056 812.309 241.736L812.981 244.2C812.213 244.563 811.349 244.851 810.389 245.064C809.429 245.277 808.352 245.384 807.157 245.384C805.962 245.384 804.885 245.192 803.925 244.808C802.965 244.403 802.144 243.837 801.461 243.112C800.8 242.365 800.288 241.459 799.925 240.392C799.562 239.304 799.381 238.067 799.381 236.68C799.381 235.443 799.562 234.291 799.925 233.224C800.288 232.157 800.8 231.24 801.461 230.472C802.122 229.683 802.912 229.075 803.829 228.648C804.746 228.2 805.77 227.976 806.901 227.976C808.096 227.976 809.141 228.179 810.037 228.584C810.933 228.989 811.68 229.544 812.277 230.248C812.874 230.952 813.322 231.773 813.621 232.712C813.92 233.651 814.069 234.643 814.069 235.688C814.069 236.435 814.037 237.16 813.973 237.864H802.325ZM806.837 230.472C805.578 230.472 804.544 230.899 803.733 231.752C802.944 232.605 802.464 233.864 802.293 235.528H811.413C811.413 233.907 811.008 232.659 810.197 231.784C809.386 230.909 808.266 230.472 806.837 230.472ZM835.871 227.976C836.831 227.976 837.684 228.136 838.431 228.456C839.199 228.776 839.86 229.171 840.415 229.64V228.36H843.039V244.616C843.039 246.003 842.857 247.187 842.495 248.168C842.132 249.149 841.609 249.949 840.927 250.568C840.265 251.208 839.465 251.677 838.527 251.976C837.588 252.275 836.543 252.424 835.391 252.424C834.388 252.424 833.428 252.307 832.511 252.072C831.593 251.837 830.772 251.485 830.047 251.016L831.103 248.52C831.615 248.925 832.212 249.256 832.895 249.512C833.577 249.789 834.409 249.928 835.391 249.928C836.905 249.928 838.089 249.533 838.943 248.744C839.817 247.955 840.255 246.675 840.255 244.904V242.856C839.828 243.368 839.209 243.859 838.399 244.328C837.609 244.776 836.66 245 835.551 245C834.612 245 833.695 244.819 832.799 244.456C831.903 244.072 831.113 243.528 830.431 242.824C829.748 242.099 829.193 241.224 828.767 240.2C828.361 239.155 828.159 237.96 828.159 236.616C828.159 235.379 828.361 234.237 828.767 233.192C829.172 232.125 829.716 231.208 830.399 230.44C831.103 229.672 831.924 229.075 832.863 228.648C833.801 228.2 834.804 227.976 835.871 227.976ZM836.191 242.44C837.044 242.44 837.812 242.248 838.495 241.864C839.177 241.48 839.732 241.032 840.159 240.52V231.816C839.668 231.475 839.103 231.165 838.463 230.888C837.823 230.611 837.055 230.472 836.159 230.472C835.497 230.472 834.857 230.611 834.239 230.888C833.641 231.144 833.108 231.528 832.639 232.04C832.169 232.552 831.796 233.181 831.519 233.928C831.241 234.653 831.103 235.496 831.103 236.456C831.103 237.373 831.241 238.205 831.519 238.952C831.796 239.677 832.169 240.307 832.639 240.84C833.108 241.352 833.641 241.747 834.239 242.024C834.857 242.301 835.508 242.44 836.191 242.44ZM861.238 236.68C861.238 235.848 861.1 235.059 860.822 234.312C860.566 233.565 860.193 232.915 859.702 232.36C859.233 231.805 858.668 231.368 858.006 231.048C857.366 230.707 856.662 230.536 855.894 230.536C854.209 230.536 852.897 231.091 851.958 232.2C851.02 233.309 850.55 234.781 850.55 236.616C850.55 237.448 850.678 238.248 850.934 239.016C851.212 239.763 851.585 240.424 852.054 241C852.545 241.555 853.11 242.003 853.75 242.344C854.412 242.664 855.126 242.824 855.894 242.824C856.726 242.824 857.473 242.675 858.134 242.376C858.796 242.077 859.35 241.661 859.798 241.128C860.268 240.573 860.62 239.923 860.854 239.176C861.11 238.429 861.238 237.597 861.238 236.68ZM847.606 236.68C847.606 235.336 847.82 234.131 848.246 233.064C848.673 231.976 849.249 231.059 849.974 230.312C850.721 229.565 851.596 228.989 852.598 228.584C853.622 228.179 854.721 227.976 855.894 227.976C857.046 227.976 858.124 228.179 859.126 228.584C860.15 228.989 861.036 229.565 861.782 230.312C862.529 231.059 863.116 231.965 863.542 233.032C863.969 234.099 864.182 235.293 864.182 236.616C864.182 237.939 863.969 239.144 863.542 240.232C863.137 241.299 862.561 242.216 861.814 242.984C861.068 243.752 860.182 244.349 859.158 244.776C858.156 245.181 857.068 245.384 855.894 245.384C854.7 245.384 853.59 245.171 852.566 244.744C851.564 244.317 850.689 243.72 849.942 242.952C849.217 242.184 848.641 241.267 848.214 240.2C847.809 239.133 847.606 237.96 847.606 236.68ZM871.78 245H868.9V228.36H871.78V245ZM870.34 225.512C869.786 225.512 869.306 225.32 868.9 224.936C868.516 224.531 868.324 224.051 868.324 223.496C868.324 222.877 868.506 222.387 868.868 222.024C869.231 221.661 869.722 221.48 870.34 221.48C870.895 221.48 871.364 221.683 871.748 222.088C872.154 222.472 872.356 222.941 872.356 223.496C872.356 224.115 872.175 224.605 871.812 224.968C871.45 225.331 870.959 225.512 870.34 225.512ZM880.573 231.144C881.17 230.248 881.928 229.501 882.845 228.904C883.784 228.285 884.893 227.976 886.173 227.976C888.05 227.976 889.448 228.541 890.365 229.672C891.304 230.803 891.773 232.296 891.773 234.152V245H888.893V234.472C888.893 233.256 888.616 232.296 888.061 231.592C887.506 230.867 886.717 230.504 885.693 230.504C885.202 230.504 884.722 230.6 884.253 230.792C883.784 230.963 883.325 231.208 882.877 231.528C882.45 231.848 882.045 232.221 881.661 232.648C881.298 233.075 880.968 233.523 880.669 233.992V245H877.789V228.36H880.573V231.144ZM904.208 227.976C905.168 227.976 906.021 228.136 906.768 228.456C907.536 228.776 908.197 229.171 908.752 229.64V228.36H911.376V244.616C911.376 246.003 911.194 247.187 910.832 248.168C910.469 249.149 909.946 249.949 909.264 250.568C908.602 251.208 907.802 251.677 906.864 251.976C905.925 252.275 904.88 252.424 903.728 252.424C902.725 252.424 901.765 252.307 900.848 252.072C899.93 251.837 899.109 251.485 898.384 251.016L899.44 248.52C899.952 248.925 900.549 249.256 901.232 249.512C901.914 249.789 902.746 249.928 903.728 249.928C905.242 249.928 906.426 249.533 907.28 248.744C908.154 247.955 908.592 246.675 908.592 244.904V242.856C908.165 243.368 907.546 243.859 906.736 244.328C905.946 244.776 904.997 245 903.888 245C902.949 245 902.032 244.819 901.136 244.456C900.24 244.072 899.45 243.528 898.768 242.824C898.085 242.099 897.53 241.224 897.104 240.2C896.698 239.155 896.496 237.96 896.496 236.616C896.496 235.379 896.698 234.237 897.104 233.192C897.509 232.125 898.053 231.208 898.736 230.44C899.44 229.672 900.261 229.075 901.2 228.648C902.138 228.2 903.141 227.976 904.208 227.976ZM904.528 242.44C905.381 242.44 906.149 242.248 906.832 241.864C907.514 241.48 908.069 241.032 908.496 240.52V231.816C908.005 231.475 907.44 231.165 906.8 230.888C906.16 230.611 905.392 230.472 904.496 230.472C903.834 230.472 903.194 230.611 902.576 230.888C901.978 231.144 901.445 231.528 900.976 232.04C900.506 232.552 900.133 233.181 899.856 233.928C899.578 234.653 899.44 235.496 899.44 236.456C899.44 237.373 899.578 238.205 899.856 238.952C900.133 239.677 900.506 240.307 900.976 240.84C901.445 241.352 901.978 241.747 902.576 242.024C903.194 242.301 903.845 242.44 904.528 242.44ZM927.706 221.32H930.586V230.088C930.799 229.853 931.066 229.608 931.386 229.352C931.706 229.096 932.058 228.872 932.442 228.68C932.847 228.467 933.295 228.296 933.786 228.168C934.277 228.04 934.81 227.976 935.386 227.976C936.346 227.976 937.263 228.168 938.138 228.552C939.034 228.936 939.813 229.491 940.474 230.216C941.157 230.941 941.701 231.837 942.106 232.904C942.511 233.971 942.714 235.176 942.714 236.52C942.714 237.843 942.501 239.048 942.074 240.136C941.647 241.224 941.082 242.163 940.378 242.952C939.674 243.72 938.863 244.317 937.946 244.744C937.05 245.171 936.133 245.384 935.194 245.384C934.234 245.384 933.327 245.213 932.474 244.872C931.642 244.531 930.949 244.115 930.394 243.624V245H927.706V221.32ZM939.77 236.616C939.77 235.656 939.631 234.803 939.354 234.056C939.098 233.288 938.735 232.637 938.266 232.104C937.818 231.571 937.285 231.165 936.666 230.888C936.069 230.611 935.429 230.472 934.746 230.472C933.829 230.472 932.997 230.707 932.25 231.176C931.525 231.624 930.97 232.115 930.586 232.648V241.544C931.077 241.928 931.653 242.237 932.314 242.472C932.975 242.707 933.679 242.824 934.426 242.824C935.194 242.824 935.909 242.675 936.57 242.376C937.231 242.077 937.797 241.661 938.266 241.128C938.735 240.573 939.098 239.923 939.354 239.176C939.631 238.408 939.77 237.555 939.77 236.616ZM946.475 236.776C946.475 235.539 946.667 234.387 947.051 233.32C947.435 232.232 947.968 231.293 948.651 230.504C949.355 229.715 950.187 229.096 951.147 228.648C952.128 228.2 953.195 227.976 954.347 227.976C955.307 227.976 956.171 228.147 956.939 228.488C957.728 228.808 958.411 229.213 958.987 229.704V228.36H961.611V240.968C961.611 241.779 961.803 242.312 962.187 242.568C962.592 242.803 963.029 242.92 963.499 242.92L962.891 245.16C960.843 245.16 959.605 244.328 959.179 242.664C958.923 243.005 958.624 243.347 958.283 243.688C957.963 244.008 957.589 244.296 957.163 244.552C956.736 244.808 956.256 245.011 955.723 245.16C955.189 245.309 954.603 245.384 953.963 245.384C952.917 245.384 951.936 245.181 951.019 244.776C950.123 244.371 949.333 243.795 948.651 243.048C947.989 242.301 947.456 241.405 947.051 240.36C946.667 239.293 946.475 238.099 946.475 236.776ZM954.603 242.824C955.413 242.824 956.181 242.632 956.907 242.248C957.632 241.864 958.24 241.363 958.731 240.744V231.816C958.155 231.411 957.515 231.091 956.811 230.856C956.128 230.6 955.403 230.472 954.635 230.472C953.867 230.472 953.163 230.621 952.523 230.92C951.883 231.219 951.328 231.645 950.859 232.2C950.411 232.733 950.059 233.384 949.803 234.152C949.547 234.92 949.419 235.763 949.419 236.68C949.419 237.576 949.547 238.408 949.803 239.176C950.059 239.923 950.421 240.573 950.891 241.128C951.36 241.661 951.904 242.077 952.523 242.376C953.163 242.675 953.856 242.824 954.603 242.824ZM978.545 231.4C977.926 231.101 977.35 230.888 976.817 230.76C976.284 230.611 975.686 230.536 975.025 230.536C974.278 230.536 973.574 230.675 972.913 230.952C972.273 231.229 971.718 231.635 971.249 232.168C970.78 232.68 970.406 233.309 970.129 234.056C969.873 234.803 969.745 235.656 969.745 236.616C969.745 237.491 969.862 238.301 970.097 239.048C970.353 239.795 970.705 240.456 971.153 241.032C971.601 241.587 972.134 242.024 972.753 242.344C973.372 242.664 974.065 242.824 974.833 242.824C975.644 242.824 976.337 242.739 976.913 242.568C977.489 242.397 978.108 242.131 978.769 241.768L979.665 244.2C978.982 244.563 978.236 244.851 977.425 245.064C976.614 245.277 975.686 245.384 974.641 245.384C973.446 245.384 972.369 245.171 971.409 244.744C970.449 244.317 969.628 243.72 968.945 242.952C968.262 242.184 967.729 241.267 967.345 240.2C966.982 239.133 966.801 237.96 966.801 236.68C966.801 235.485 966.982 234.365 967.345 233.32C967.729 232.253 968.273 231.325 968.977 230.536C969.681 229.747 970.524 229.128 971.505 228.68C972.508 228.211 973.628 227.976 974.865 227.976C975.825 227.976 976.657 228.061 977.361 228.232C978.065 228.403 978.748 228.648 979.409 228.968L978.545 231.4ZM983.904 221.32H986.784V234.856L994.304 228.04L995.968 229.864L989.536 235.56L997.376 243.4L995.392 245.32L986.784 236.456V245H983.904V221.32ZM1012.93 223.72H1015.14V228.968H1019.75V231.464H1015.14V239.496C1015.14 240.115 1015.2 240.637 1015.33 241.064C1015.48 241.491 1015.67 241.832 1015.91 242.088C1016.14 242.344 1016.42 242.536 1016.74 242.664C1017.08 242.771 1017.43 242.824 1017.8 242.824C1018.33 242.824 1018.83 242.739 1019.3 242.568C1019.77 242.397 1020.22 242.195 1020.64 241.96L1021.44 244.264C1021.02 244.52 1020.44 244.765 1019.72 245C1018.99 245.256 1018.23 245.384 1017.44 245.384C1015.84 245.384 1014.57 244.861 1013.64 243.816C1012.72 242.771 1012.26 241.256 1012.26 239.272V231.464H1009.38V228.968H1012.32L1012.93 223.72ZM1036.95 236.68C1036.95 235.848 1036.82 235.059 1036.54 234.312C1036.28 233.565 1035.91 232.915 1035.42 232.36C1034.95 231.805 1034.38 231.368 1033.72 231.048C1033.08 230.707 1032.38 230.536 1031.61 230.536C1029.92 230.536 1028.61 231.091 1027.67 232.2C1026.74 233.309 1026.27 234.781 1026.27 236.616C1026.27 237.448 1026.39 238.248 1026.65 239.016C1026.93 239.763 1027.3 240.424 1027.77 241C1028.26 241.555 1028.83 242.003 1029.47 242.344C1030.13 242.664 1030.84 242.824 1031.61 242.824C1032.44 242.824 1033.19 242.675 1033.85 242.376C1034.51 242.077 1035.07 241.661 1035.51 241.128C1035.98 240.573 1036.34 239.923 1036.57 239.176C1036.83 238.429 1036.95 237.597 1036.95 236.68ZM1023.32 236.68C1023.32 235.336 1023.54 234.131 1023.96 233.064C1024.39 231.976 1024.96 231.059 1025.69 230.312C1026.44 229.565 1027.31 228.989 1028.31 228.584C1029.34 228.179 1030.44 227.976 1031.61 227.976C1032.76 227.976 1033.84 228.179 1034.84 228.584C1035.87 228.989 1036.75 229.565 1037.5 230.312C1038.24 231.059 1038.83 231.965 1039.26 233.032C1039.68 234.099 1039.9 235.293 1039.9 236.616C1039.9 237.939 1039.68 239.144 1039.26 240.232C1038.85 241.299 1038.28 242.216 1037.53 242.984C1036.78 243.752 1035.9 244.349 1034.87 244.776C1033.87 245.181 1032.78 245.384 1031.61 245.384C1030.42 245.384 1029.31 245.171 1028.28 244.744C1027.28 244.317 1026.4 243.72 1025.66 242.952C1024.93 242.184 1024.36 241.267 1023.93 240.2C1023.52 239.133 1023.32 237.96 1023.32 236.68ZM1069.98 245.16C1068.95 245.16 1068.14 244.957 1067.55 244.552C1066.95 244.147 1066.53 243.56 1066.3 242.792C1065.55 243.56 1064.69 244.189 1063.71 244.68C1062.75 245.149 1061.69 245.384 1060.54 245.384C1059.81 245.384 1059.11 245.267 1058.43 245.032C1057.76 244.819 1057.17 244.467 1056.63 243.976C1056.12 243.485 1055.71 242.845 1055.39 242.056C1055.09 241.267 1054.94 240.307 1054.94 239.176V228.36H1057.82V238.792C1057.82 240.093 1058.08 241.096 1058.62 241.8C1059.17 242.483 1059.99 242.824 1061.08 242.824C1061.98 242.824 1062.83 242.653 1063.64 242.312C1064.45 241.949 1065.18 241.469 1065.82 240.872V228.36H1068.7V240.68C1068.7 241.149 1068.75 241.533 1068.86 241.832C1068.96 242.109 1069.1 242.333 1069.27 242.504C1069.44 242.653 1069.65 242.76 1069.88 242.824C1070.12 242.888 1070.35 242.92 1070.59 242.92L1069.98 245.16ZM1075.08 241.256C1075.63 241.747 1076.32 242.141 1077.16 242.44C1078.01 242.739 1078.92 242.888 1079.88 242.888C1081.07 242.888 1081.97 242.696 1082.56 242.312C1083.18 241.907 1083.49 241.395 1083.49 240.776C1083.49 240.456 1083.43 240.157 1083.3 239.88C1083.19 239.603 1082.98 239.336 1082.66 239.08C1082.36 238.824 1081.94 238.579 1081.41 238.344C1080.88 238.088 1080.18 237.811 1079.33 237.512C1077.75 236.979 1076.58 236.349 1075.81 235.624C1075.04 234.877 1074.66 233.853 1074.66 232.552C1074.66 231.912 1074.8 231.315 1075.08 230.76C1075.37 230.205 1075.79 229.725 1076.32 229.32C1076.88 228.893 1077.54 228.563 1078.31 228.328C1079.1 228.093 1079.99 227.976 1081 227.976C1082.08 227.976 1083.03 228.093 1083.84 228.328C1084.68 228.541 1085.42 228.819 1086.08 229.16L1085.28 231.528C1084.71 231.187 1084.05 230.909 1083.3 230.696C1082.57 230.483 1081.76 230.376 1080.87 230.376C1079.76 230.376 1078.92 230.6 1078.34 231.048C1077.76 231.496 1077.48 231.987 1077.48 232.52C1077.48 232.776 1077.52 233.011 1077.6 233.224C1077.71 233.437 1077.89 233.64 1078.15 233.832C1078.4 234.024 1078.74 234.216 1079.17 234.408C1079.6 234.6 1080.13 234.803 1080.77 235.016C1081.82 235.379 1082.7 235.752 1083.43 236.136C1084.15 236.499 1084.74 236.904 1085.19 237.352C1085.64 237.8 1085.96 238.291 1086.15 238.824C1086.34 239.336 1086.44 239.912 1086.44 240.552C1086.44 241.299 1086.28 241.971 1085.96 242.568C1085.64 243.165 1085.19 243.677 1084.61 244.104C1084.04 244.509 1083.33 244.819 1082.5 245.032C1081.69 245.267 1080.78 245.384 1079.78 245.384C1078.5 245.384 1077.36 245.224 1076.36 244.904C1075.35 244.584 1074.52 244.168 1073.86 243.656L1075.08 241.256ZM1094.04 245H1091.16V228.36H1094.04V245ZM1092.6 225.512C1092.04 225.512 1091.56 225.32 1091.16 224.936C1090.77 224.531 1090.58 224.051 1090.58 223.496C1090.58 222.877 1090.76 222.387 1091.13 222.024C1091.49 221.661 1091.98 221.48 1092.6 221.48C1093.15 221.48 1093.62 221.683 1094.01 222.088C1094.41 222.472 1094.61 222.941 1094.61 223.496C1094.61 224.115 1094.43 224.605 1094.07 224.968C1093.71 225.331 1093.22 225.512 1092.6 225.512ZM1102.83 231.144C1103.43 230.248 1104.18 229.501 1105.1 228.904C1106.04 228.285 1107.15 227.976 1108.43 227.976C1110.31 227.976 1111.7 228.541 1112.62 229.672C1113.56 230.803 1114.03 232.296 1114.03 234.152V245H1111.15V234.472C1111.15 233.256 1110.87 232.296 1110.32 231.592C1109.76 230.867 1108.97 230.504 1107.95 230.504C1107.46 230.504 1106.98 230.6 1106.51 230.792C1106.04 230.963 1105.58 231.208 1105.13 231.528C1104.71 231.848 1104.3 232.221 1103.92 232.648C1103.56 233.075 1103.22 233.523 1102.93 233.992V245H1100.05V228.36H1102.83V231.144ZM1126.46 227.976C1127.42 227.976 1128.28 228.136 1129.02 228.456C1129.79 228.776 1130.45 229.171 1131.01 229.64V228.36H1133.63V244.616C1133.63 246.003 1133.45 247.187 1133.09 248.168C1132.73 249.149 1132.2 249.949 1131.52 250.568C1130.86 251.208 1130.06 251.677 1129.12 251.976C1128.18 252.275 1127.14 252.424 1125.98 252.424C1124.98 252.424 1124.02 252.307 1123.1 252.072C1122.19 251.837 1121.37 251.485 1120.64 251.016L1121.7 248.52C1122.21 248.925 1122.81 249.256 1123.49 249.512C1124.17 249.789 1125 249.928 1125.98 249.928C1127.5 249.928 1128.68 249.533 1129.54 248.744C1130.41 247.955 1130.85 246.675 1130.85 244.904V242.856C1130.42 243.368 1129.8 243.859 1128.99 244.328C1128.2 244.776 1127.25 245 1126.14 245C1125.21 245 1124.29 244.819 1123.39 244.456C1122.5 244.072 1121.71 243.528 1121.02 242.824C1120.34 242.099 1119.79 241.224 1119.36 240.2C1118.96 239.155 1118.75 237.96 1118.75 236.616C1118.75 235.379 1118.96 234.237 1119.36 233.192C1119.77 232.125 1120.31 231.208 1120.99 230.44C1121.7 229.672 1122.52 229.075 1123.46 228.648C1124.4 228.2 1125.4 227.976 1126.46 227.976ZM1126.78 242.44C1127.64 242.44 1128.41 242.248 1129.09 241.864C1129.77 241.48 1130.33 241.032 1130.75 240.52V231.816C1130.26 231.475 1129.7 231.165 1129.06 230.888C1128.42 230.611 1127.65 230.472 1126.75 230.472C1126.09 230.472 1125.45 230.611 1124.83 230.888C1124.24 231.144 1123.7 231.528 1123.23 232.04C1122.76 232.552 1122.39 233.181 1122.11 233.928C1121.84 234.653 1121.7 235.496 1121.7 236.456C1121.7 237.373 1121.84 238.205 1122.11 238.952C1122.39 239.677 1122.76 240.307 1123.23 240.84C1123.7 241.352 1124.24 241.747 1124.83 242.024C1125.45 242.301 1126.1 242.44 1126.78 242.44ZM454.768 271.472L448.784 284.944H445.776L439.76 271.472V290H436.88V267.6H441.136L447.344 281.776L453.456 267.6H457.808V290H454.768V271.472ZM463.016 281.776C463.016 280.539 463.208 279.387 463.592 278.32C463.976 277.232 464.51 276.293 465.192 275.504C465.896 274.715 466.728 274.096 467.688 273.648C468.67 273.2 469.736 272.976 470.888 272.976C471.848 272.976 472.712 273.147 473.48 273.488C474.27 273.808 474.952 274.213 475.528 274.704V273.36H478.152V285.968C478.152 286.779 478.344 287.312 478.728 287.568C479.134 287.803 479.571 287.92 480.04 287.92L479.432 290.16C477.384 290.16 476.147 289.328 475.72 287.664C475.464 288.005 475.166 288.347 474.824 288.688C474.504 289.008 474.131 289.296 473.704 289.552C473.278 289.808 472.798 290.011 472.264 290.16C471.731 290.309 471.144 290.384 470.504 290.384C469.459 290.384 468.478 290.181 467.56 289.776C466.664 289.371 465.875 288.795 465.192 288.048C464.531 287.301 463.998 286.405 463.592 285.36C463.208 284.293 463.016 283.099 463.016 281.776ZM471.144 287.824C471.955 287.824 472.723 287.632 473.448 287.248C474.174 286.864 474.782 286.363 475.272 285.744V276.816C474.696 276.411 474.056 276.091 473.352 275.856C472.67 275.6 471.944 275.472 471.176 275.472C470.408 275.472 469.704 275.621 469.064 275.92C468.424 276.219 467.87 276.645 467.4 277.2C466.952 277.733 466.6 278.384 466.344 279.152C466.088 279.92 465.96 280.763 465.96 281.68C465.96 282.576 466.088 283.408 466.344 284.176C466.6 284.923 466.963 285.573 467.432 286.128C467.902 286.661 468.446 287.077 469.064 287.376C469.704 287.675 470.398 287.824 471.144 287.824ZM495.087 276.4C494.468 276.101 493.892 275.888 493.359 275.76C492.825 275.611 492.228 275.536 491.567 275.536C490.82 275.536 490.116 275.675 489.455 275.952C488.815 276.229 488.26 276.635 487.791 277.168C487.321 277.68 486.948 278.309 486.671 279.056C486.415 279.803 486.287 280.656 486.287 281.616C486.287 282.491 486.404 283.301 486.639 284.048C486.895 284.795 487.247 285.456 487.695 286.032C488.143 286.587 488.676 287.024 489.295 287.344C489.913 287.664 490.607 287.824 491.375 287.824C492.185 287.824 492.879 287.739 493.455 287.568C494.031 287.397 494.649 287.131 495.311 286.768L496.207 289.2C495.524 289.563 494.777 289.851 493.967 290.064C493.156 290.277 492.228 290.384 491.183 290.384C489.988 290.384 488.911 290.171 487.951 289.744C486.991 289.317 486.169 288.72 485.487 287.952C484.804 287.184 484.271 286.267 483.887 285.2C483.524 284.133 483.343 282.96 483.343 281.68C483.343 280.485 483.524 279.365 483.887 278.32C484.271 277.253 484.815 276.325 485.519 275.536C486.223 274.747 487.065 274.128 488.047 273.68C489.049 273.211 490.169 272.976 491.407 272.976C492.367 272.976 493.199 273.061 493.903 273.232C494.607 273.403 495.289 273.648 495.951 273.968L495.087 276.4ZM500.765 267.664C501.661 267.557 502.621 267.483 503.645 267.44C504.691 267.376 505.789 267.344 506.941 267.344C508.328 267.344 509.565 267.515 510.653 267.856C511.741 268.197 512.659 268.667 513.405 269.264C514.152 269.861 514.717 270.587 515.101 271.44C515.485 272.272 515.677 273.179 515.677 274.16C515.677 275.355 515.443 276.421 514.973 277.36C514.525 278.277 513.885 279.056 513.053 279.696C512.243 280.336 511.261 280.827 510.109 281.168C508.957 281.488 507.688 281.648 506.301 281.648C505.405 281.648 504.573 281.616 503.805 281.552V290H500.765V267.664ZM506.685 279.12C508.605 279.12 510.077 278.704 511.101 277.872C512.147 277.019 512.669 275.867 512.669 274.416C512.669 273.029 512.168 271.931 511.165 271.12C510.184 270.309 508.755 269.904 506.877 269.904C506.301 269.904 505.757 269.915 505.245 269.936C504.733 269.957 504.253 269.989 503.805 270.032V278.96C504.147 279.003 504.552 279.045 505.021 279.088C505.512 279.109 506.067 279.12 506.685 279.12ZM518.339 281.776C518.339 280.539 518.531 279.387 518.915 278.32C519.299 277.232 519.833 276.293 520.515 275.504C521.219 274.715 522.051 274.096 523.011 273.648C523.993 273.2 525.059 272.976 526.211 272.976C527.171 272.976 528.035 273.147 528.803 273.488C529.593 273.808 530.275 274.213 530.851 274.704V273.36H533.475V285.968C533.475 286.779 533.667 287.312 534.051 287.568C534.457 287.803 534.894 287.92 535.363 287.92L534.755 290.16C532.707 290.16 531.47 289.328 531.043 287.664C530.787 288.005 530.489 288.347 530.147 288.688C529.827 289.008 529.454 289.296 529.027 289.552C528.601 289.808 528.121 290.011 527.587 290.16C527.054 290.309 526.467 290.384 525.827 290.384C524.782 290.384 523.801 290.181 522.883 289.776C521.987 289.371 521.198 288.795 520.515 288.048C519.854 287.301 519.321 286.405 518.915 285.36C518.531 284.293 518.339 283.099 518.339 281.776ZM526.467 287.824C527.278 287.824 528.046 287.632 528.771 287.248C529.497 286.864 530.105 286.363 530.595 285.744V276.816C530.019 276.411 529.379 276.091 528.675 275.856C527.993 275.6 527.267 275.472 526.499 275.472C525.731 275.472 525.027 275.621 524.387 275.92C523.747 276.219 523.193 276.645 522.723 277.2C522.275 277.733 521.923 278.384 521.667 279.152C521.411 279.92 521.283 280.763 521.283 281.68C521.283 282.576 521.411 283.408 521.667 284.176C521.923 284.923 522.286 285.573 522.755 286.128C523.225 286.661 523.769 287.077 524.387 287.376C525.027 287.675 525.721 287.824 526.467 287.824ZM542.978 290H540.098V273.36H542.978V290ZM541.538 270.512C540.984 270.512 540.504 270.32 540.098 269.936C539.714 269.531 539.522 269.051 539.522 268.496C539.522 267.877 539.704 267.387 540.066 267.024C540.429 266.661 540.92 266.48 541.538 266.48C542.093 266.48 542.562 266.683 542.946 267.088C543.352 267.472 543.554 267.941 543.554 268.496C543.554 269.115 543.373 269.605 543.01 269.968C542.648 270.331 542.157 270.512 541.538 270.512ZM551.771 276.144C552.368 275.248 553.126 274.501 554.043 273.904C554.982 273.285 556.091 272.976 557.371 272.976C559.248 272.976 560.646 273.541 561.563 274.672C562.502 275.803 562.971 277.296 562.971 279.152V290H560.091V279.472C560.091 278.256 559.814 277.296 559.259 276.592C558.704 275.867 557.915 275.504 556.891 275.504C556.4 275.504 555.92 275.6 555.451 275.792C554.982 275.963 554.523 276.208 554.075 276.528C553.648 276.848 553.243 277.221 552.859 277.648C552.496 278.075 552.166 278.523 551.867 278.992V290H548.987V273.36H551.771V276.144ZM570.125 268.72H572.333V273.968H576.941V276.464H572.333V284.496C572.333 285.115 572.397 285.637 572.525 286.064C572.675 286.491 572.867 286.832 573.101 287.088C573.336 287.344 573.613 287.536 573.933 287.664C574.275 287.771 574.627 287.824 574.989 287.824C575.523 287.824 576.024 287.739 576.493 287.568C576.963 287.397 577.411 287.195 577.837 286.96L578.637 289.264C578.211 289.52 577.635 289.765 576.909 290C576.184 290.256 575.427 290.384 574.637 290.384C573.037 290.384 571.768 289.861 570.829 288.816C569.912 287.771 569.453 286.256 569.453 284.272V276.464H566.573V273.968H569.517L570.125 268.72ZM591.784 281.776C591.784 280.539 591.976 279.387 592.36 278.32C592.744 277.232 593.277 276.293 593.96 275.504C594.664 274.715 595.496 274.096 596.456 273.648C597.437 273.2 598.504 272.976 599.656 272.976C600.616 272.976 601.48 273.147 602.248 273.488C603.037 273.808 603.72 274.213 604.296 274.704V273.36H606.92V285.968C606.92 286.779 607.112 287.312 607.496 287.568C607.901 287.803 608.338 287.92 608.808 287.92L608.2 290.16C606.152 290.16 604.914 289.328 604.488 287.664C604.232 288.005 603.933 288.347 603.592 288.688C603.272 289.008 602.898 289.296 602.472 289.552C602.045 289.808 601.565 290.011 601.032 290.16C600.498 290.309 599.912 290.384 599.272 290.384C598.226 290.384 597.245 290.181 596.328 289.776C595.432 289.371 594.642 288.795 593.96 288.048C593.298 287.301 592.765 286.405 592.36 285.36C591.976 284.293 591.784 283.099 591.784 281.776ZM599.912 287.824C600.722 287.824 601.49 287.632 602.216 287.248C602.941 286.864 603.549 286.363 604.04 285.744V276.816C603.464 276.411 602.824 276.091 602.12 275.856C601.437 275.6 600.712 275.472 599.944 275.472C599.176 275.472 598.472 275.621 597.832 275.92C597.192 276.219 596.637 276.645 596.168 277.2C595.72 277.733 595.368 278.384 595.112 279.152C594.856 279.92 594.728 280.763 594.728 281.68C594.728 282.576 594.856 283.408 595.112 284.176C595.368 284.923 595.73 285.573 596.2 286.128C596.669 286.661 597.213 287.077 597.832 287.376C598.472 287.675 599.165 287.824 599.912 287.824ZM613.319 286.256C613.873 286.747 614.567 287.141 615.399 287.44C616.252 287.739 617.159 287.888 618.119 287.888C619.313 287.888 620.209 287.696 620.807 287.312C621.425 286.907 621.735 286.395 621.735 285.776C621.735 285.456 621.671 285.157 621.543 284.88C621.436 284.603 621.223 284.336 620.903 284.08C620.604 283.824 620.188 283.579 619.655 283.344C619.121 283.088 618.428 282.811 617.575 282.512C615.996 281.979 614.823 281.349 614.055 280.624C613.287 279.877 612.903 278.853 612.903 277.552C612.903 276.912 613.041 276.315 613.319 275.76C613.617 275.205 614.033 274.725 614.567 274.32C615.121 273.893 615.783 273.563 616.551 273.328C617.34 273.093 618.236 272.976 619.239 272.976C620.327 272.976 621.276 273.093 622.087 273.328C622.919 273.541 623.665 273.819 624.327 274.16L623.527 276.528C622.951 276.187 622.289 275.909 621.543 275.696C620.817 275.483 620.007 275.376 619.111 275.376C618.001 275.376 617.159 275.6 616.583 276.048C616.007 276.496 615.719 276.987 615.719 277.52C615.719 277.776 615.761 278.011 615.847 278.224C615.953 278.437 616.135 278.64 616.391 278.832C616.647 279.024 616.988 279.216 617.415 279.408C617.841 279.6 618.375 279.803 619.015 280.016C620.06 280.379 620.945 280.752 621.671 281.136C622.396 281.499 622.983 281.904 623.431 282.352C623.879 282.8 624.199 283.291 624.391 283.824C624.583 284.336 624.679 284.912 624.679 285.552C624.679 286.299 624.519 286.971 624.199 287.568C623.879 288.165 623.431 288.677 622.855 289.104C622.279 289.509 621.575 289.819 620.743 290.032C619.932 290.267 619.025 290.384 618.023 290.384C616.743 290.384 615.601 290.224 614.599 289.904C613.596 289.584 612.764 289.168 612.103 288.656L613.319 286.256ZM652.235 281.68C652.235 280.848 652.096 280.059 651.819 279.312C651.563 278.565 651.19 277.915 650.699 277.36C650.23 276.805 649.664 276.368 649.003 276.048C648.363 275.707 647.659 275.536 646.891 275.536C645.206 275.536 643.894 276.091 642.955 277.2C642.016 278.309 641.547 279.781 641.547 281.616C641.547 282.448 641.675 283.248 641.931 284.016C642.208 284.763 642.582 285.424 643.051 286C643.542 286.555 644.107 287.003 644.747 287.344C645.408 287.664 646.123 287.824 646.891 287.824C647.723 287.824 648.47 287.675 649.131 287.376C649.792 287.077 650.347 286.661 650.795 286.128C651.264 285.573 651.616 284.923 651.851 284.176C652.107 283.429 652.235 282.597 652.235 281.68ZM638.603 281.68C638.603 280.336 638.816 279.131 639.243 278.064C639.67 276.976 640.246 276.059 640.971 275.312C641.718 274.565 642.592 273.989 643.595 273.584C644.619 273.179 645.718 272.976 646.891 272.976C648.043 272.976 649.12 273.179 650.123 273.584C651.147 273.989 652.032 274.565 652.779 275.312C653.526 276.059 654.112 276.965 654.539 278.032C654.966 279.099 655.179 280.293 655.179 281.616C655.179 282.939 654.966 284.144 654.539 285.232C654.134 286.299 653.558 287.216 652.811 287.984C652.064 288.752 651.179 289.349 650.155 289.776C649.152 290.181 648.064 290.384 646.891 290.384C645.696 290.384 644.587 290.171 643.563 289.744C642.56 289.317 641.686 288.72 640.939 287.952C640.214 287.184 639.638 286.267 639.211 285.2C638.806 284.133 638.603 282.96 638.603 281.68ZM669.209 269.424C668.761 269.189 668.281 268.976 667.769 268.784C667.257 268.592 666.691 268.496 666.073 268.496C665.177 268.496 664.451 268.784 663.897 269.36C663.363 269.915 663.097 270.736 663.097 271.824V273.968H668.025V276.464H663.097V290H660.217V276.464H657.657V273.968H660.217V272.016C660.217 271.077 660.355 270.235 660.633 269.488C660.91 268.741 661.294 268.101 661.785 267.568C662.275 267.035 662.873 266.629 663.577 266.352C664.281 266.075 665.049 265.936 665.881 265.936C666.777 265.936 667.545 266.043 668.185 266.256C668.846 266.448 669.475 266.693 670.073 266.992L669.209 269.424ZM683.705 268.72H685.913V273.968H690.521V276.464H685.913V284.496C685.913 285.115 685.977 285.637 686.105 286.064C686.255 286.491 686.447 286.832 686.681 287.088C686.916 287.344 687.193 287.536 687.513 287.664C687.855 287.771 688.207 287.824 688.569 287.824C689.103 287.824 689.604 287.739 690.073 287.568C690.543 287.397 690.991 287.195 691.417 286.96L692.217 289.264C691.791 289.52 691.215 289.765 690.489 290C689.764 290.256 689.007 290.384 688.217 290.384C686.617 290.384 685.348 289.861 684.409 288.816C683.492 287.771 683.033 286.256 683.033 284.272V276.464H680.153V273.968H683.097L683.705 268.72ZM707.728 281.68C707.728 280.848 707.589 280.059 707.312 279.312C707.056 278.565 706.683 277.915 706.192 277.36C705.723 276.805 705.157 276.368 704.496 276.048C703.856 275.707 703.152 275.536 702.384 275.536C700.699 275.536 699.387 276.091 698.448 277.2C697.509 278.309 697.04 279.781 697.04 281.616C697.04 282.448 697.168 283.248 697.424 284.016C697.701 284.763 698.075 285.424 698.544 286C699.035 286.555 699.6 287.003 700.24 287.344C700.901 287.664 701.616 287.824 702.384 287.824C703.216 287.824 703.963 287.675 704.624 287.376C705.285 287.077 705.84 286.661 706.288 286.128C706.757 285.573 707.109 284.923 707.344 284.176C707.6 283.429 707.728 282.597 707.728 281.68ZM694.096 281.68C694.096 280.336 694.309 279.131 694.736 278.064C695.163 276.976 695.739 276.059 696.464 275.312C697.211 274.565 698.085 273.989 699.088 273.584C700.112 273.179 701.211 272.976 702.384 272.976C703.536 272.976 704.613 273.179 705.616 273.584C706.64 273.989 707.525 274.565 708.272 275.312C709.019 276.059 709.605 276.965 710.032 278.032C710.459 279.099 710.672 280.293 710.672 281.616C710.672 282.939 710.459 284.144 710.032 285.232C709.627 286.299 709.051 287.216 708.304 287.984C707.557 288.752 706.672 289.349 705.648 289.776C704.645 290.181 703.557 290.384 702.384 290.384C701.189 290.384 700.08 290.171 699.056 289.744C698.053 289.317 697.179 288.72 696.432 287.952C695.707 287.184 695.131 286.267 694.704 285.2C694.299 284.133 694.096 282.96 694.096 281.68ZM721.694 290.384C720.67 290.384 719.699 290.181 718.782 289.776C717.886 289.371 717.097 288.795 716.414 288.048C715.753 287.301 715.23 286.405 714.846 285.36C714.462 284.293 714.27 283.099 714.27 281.776C714.27 280.517 714.462 279.355 714.846 278.288C715.251 277.2 715.785 276.272 716.446 275.504C717.129 274.715 717.918 274.096 718.814 273.648C719.71 273.2 720.659 272.976 721.662 272.976C722.771 272.976 723.721 273.2 724.51 273.648C725.321 274.096 725.95 274.555 726.398 275.024V266.32H729.278V285.968C729.278 286.779 729.47 287.312 729.854 287.568C730.259 287.803 730.697 287.92 731.166 287.92L730.558 290.16C728.531 290.16 727.294 289.349 726.846 287.728C726.355 288.411 725.694 289.029 724.862 289.584C724.03 290.117 722.974 290.384 721.694 290.384ZM722.334 287.824C723.123 287.824 723.87 287.643 724.574 287.28C725.299 286.896 725.907 286.405 726.398 285.808V277.552C725.993 277.04 725.427 276.571 724.702 276.144C723.998 275.696 723.198 275.472 722.302 275.472C721.534 275.472 720.83 275.632 720.19 275.952C719.571 276.272 719.038 276.709 718.59 277.264C718.142 277.819 717.801 278.48 717.566 279.248C717.331 279.995 717.214 280.805 717.214 281.68C717.214 282.576 717.342 283.397 717.598 284.144C717.854 284.891 718.206 285.541 718.654 286.096C719.123 286.629 719.667 287.056 720.286 287.376C720.926 287.675 721.609 287.824 722.334 287.824ZM734.471 281.776C734.471 280.539 734.663 279.387 735.047 278.32C735.431 277.232 735.965 276.293 736.647 275.504C737.351 274.715 738.183 274.096 739.143 273.648C740.125 273.2 741.191 272.976 742.343 272.976C743.303 272.976 744.167 273.147 744.935 273.488C745.725 273.808 746.407 274.213 746.983 274.704V273.36H749.607V285.968C749.607 286.779 749.799 287.312 750.183 287.568C750.589 287.803 751.026 287.92 751.495 287.92L750.887 290.16C748.839 290.16 747.602 289.328 747.175 287.664C746.919 288.005 746.621 288.347 746.279 288.688C745.959 289.008 745.586 289.296 745.159 289.552C744.733 289.808 744.253 290.011 743.719 290.16C743.186 290.309 742.599 290.384 741.959 290.384C740.914 290.384 739.933 290.181 739.015 289.776C738.119 289.371 737.33 288.795 736.647 288.048C735.986 287.301 735.453 286.405 735.047 285.36C734.663 284.293 734.471 283.099 734.471 281.776ZM742.599 287.824C743.41 287.824 744.178 287.632 744.903 287.248C745.629 286.864 746.237 286.363 746.727 285.744V276.816C746.151 276.411 745.511 276.091 744.807 275.856C744.125 275.6 743.399 275.472 742.631 275.472C741.863 275.472 741.159 275.621 740.519 275.92C739.879 276.219 739.325 276.645 738.855 277.2C738.407 277.733 738.055 278.384 737.799 279.152C737.543 279.92 737.415 280.763 737.415 281.68C737.415 282.576 737.543 283.408 737.799 284.176C738.055 284.923 738.418 285.573 738.887 286.128C739.357 286.661 739.901 287.077 740.519 287.376C741.159 287.675 741.853 287.824 742.599 287.824ZM756.021 297.424C755.381 297.424 754.816 297.36 754.325 297.232C753.856 297.104 753.482 296.955 753.205 296.784L753.845 294.384C754.101 294.533 754.41 294.661 754.773 294.768C755.157 294.875 755.594 294.928 756.085 294.928C756.533 294.928 756.949 294.864 757.333 294.736C757.738 294.608 758.122 294.384 758.485 294.064C758.848 293.744 759.189 293.307 759.509 292.752C759.85 292.197 760.181 291.504 760.501 290.672L761.237 288.752H759.701L753.205 274.128L755.765 272.976L761.973 286.832L766.805 273.104L769.461 274.128L763.349 290.832C762.88 292.112 762.378 293.168 761.845 294C761.333 294.853 760.778 295.536 760.181 296.048C759.584 296.56 758.933 296.912 758.229 297.104C757.546 297.317 756.81 297.424 756.021 297.424ZM770.778 288.24C770.778 287.579 770.959 287.056 771.322 286.672C771.706 286.288 772.239 286.096 772.922 286.096C773.476 286.096 773.967 286.309 774.394 286.736C774.842 287.163 775.066 287.664 775.066 288.24C775.066 288.88 774.863 289.403 774.458 289.808C774.052 290.192 773.54 290.384 772.922 290.384C772.346 290.384 771.844 290.171 771.418 289.744C770.991 289.317 770.778 288.816 770.778 288.24ZM791.967 267.664C792.969 267.557 793.951 267.483 794.911 267.44C795.871 267.376 796.969 267.344 798.207 267.344C800.127 267.344 801.78 267.643 803.167 268.24C804.553 268.837 805.705 269.659 806.623 270.704C807.54 271.749 808.212 272.965 808.639 274.352C809.087 275.739 809.311 277.211 809.311 278.768C809.311 280.325 809.087 281.808 808.639 283.216C808.191 284.603 807.497 285.819 806.559 286.864C805.641 287.909 804.457 288.741 803.007 289.36C801.577 289.957 799.86 290.256 797.855 290.256C796.639 290.256 795.572 290.224 794.655 290.16C793.759 290.117 792.863 290.043 791.967 289.936V267.664ZM798.111 269.968C797.492 269.968 796.927 269.989 796.415 270.032C795.903 270.053 795.433 270.085 795.007 270.128V287.44C795.455 287.504 795.924 287.547 796.415 287.568C796.905 287.589 797.417 287.6 797.951 287.6C799.38 287.6 800.617 287.387 801.663 286.96C802.708 286.512 803.561 285.904 804.223 285.136C804.905 284.347 805.407 283.419 805.727 282.352C806.047 281.264 806.207 280.069 806.207 278.768C806.207 277.616 806.047 276.517 805.727 275.472C805.407 274.405 804.916 273.467 804.255 272.656C803.593 271.824 802.751 271.173 801.727 270.704C800.703 270.213 799.497 269.968 798.111 269.968ZM826.7 281.68C826.7 280.848 826.562 280.059 826.284 279.312C826.028 278.565 825.655 277.915 825.164 277.36C824.695 276.805 824.13 276.368 823.468 276.048C822.828 275.707 822.124 275.536 821.356 275.536C819.671 275.536 818.359 276.091 817.42 277.2C816.482 278.309 816.012 279.781 816.012 281.616C816.012 282.448 816.14 283.248 816.396 284.016C816.674 284.763 817.047 285.424 817.516 286C818.007 286.555 818.572 287.003 819.212 287.344C819.874 287.664 820.588 287.824 821.356 287.824C822.188 287.824 822.935 287.675 823.596 287.376C824.258 287.077 824.812 286.661 825.26 286.128C825.73 285.573 826.082 284.923 826.316 284.176C826.572 283.429 826.7 282.597 826.7 281.68ZM813.068 281.68C813.068 280.336 813.282 279.131 813.708 278.064C814.135 276.976 814.711 276.059 815.436 275.312C816.183 274.565 817.058 273.989 818.06 273.584C819.084 273.179 820.183 272.976 821.356 272.976C822.508 272.976 823.586 273.179 824.588 273.584C825.612 273.989 826.498 274.565 827.244 275.312C827.991 276.059 828.578 276.965 829.004 278.032C829.431 279.099 829.644 280.293 829.644 281.616C829.644 282.939 829.431 284.144 829.004 285.232C828.599 286.299 828.023 287.216 827.276 287.984C826.53 288.752 825.644 289.349 824.62 289.776C823.618 290.181 822.53 290.384 821.356 290.384C820.162 290.384 819.052 290.171 818.028 289.744C817.026 289.317 816.151 288.72 815.404 287.952C814.679 287.184 814.103 286.267 813.676 285.2C813.271 284.133 813.068 282.96 813.068 281.68ZM837.146 276.144C837.743 275.248 838.501 274.501 839.418 273.904C840.357 273.285 841.466 272.976 842.746 272.976C844.623 272.976 846.021 273.541 846.938 274.672C847.877 275.803 848.346 277.296 848.346 279.152V290H845.466V279.472C845.466 278.256 845.189 277.296 844.634 276.592C844.079 275.867 843.29 275.504 842.266 275.504C841.775 275.504 841.295 275.6 840.826 275.792C840.357 275.963 839.898 276.208 839.45 276.528C839.023 276.848 838.618 277.221 838.234 277.648C837.871 278.075 837.541 278.523 837.242 278.992V290H834.362V273.36H837.146V276.144ZM852.908 267.984C852.908 267.365 853.111 266.875 853.516 266.512C853.922 266.128 854.434 265.936 855.052 265.936C855.799 265.936 856.407 266.181 856.876 266.672C857.367 267.163 857.612 267.867 857.612 268.784C857.612 269.765 857.324 270.736 856.748 271.696C856.194 272.635 855.404 273.381 854.38 273.936L853.644 272.816C854.199 272.432 854.636 272.005 854.956 271.536C855.298 271.067 855.522 270.523 855.628 269.904C855.436 269.989 855.212 270.032 854.956 270.032C854.359 270.032 853.868 269.84 853.484 269.456C853.1 269.072 852.908 268.581 852.908 267.984ZM864.608 268.72H866.816V273.968H871.424V276.464H866.816V284.496C866.816 285.115 866.88 285.637 867.008 286.064C867.157 286.491 867.349 286.832 867.584 287.088C867.819 287.344 868.096 287.536 868.416 287.664C868.757 287.771 869.109 287.824 869.472 287.824C870.005 287.824 870.507 287.739 870.976 287.568C871.445 287.397 871.893 287.195 872.32 286.96L873.12 289.264C872.693 289.52 872.117 289.765 871.392 290C870.667 290.256 869.909 290.384 869.12 290.384C867.52 290.384 866.251 289.861 865.312 288.816C864.395 287.771 863.936 286.256 863.936 284.272V276.464H861.056V273.968H864L864.608 268.72ZM888.698 268.72H890.906V273.968H895.514V276.464H890.906V284.496C890.906 285.115 890.97 285.637 891.098 286.064C891.248 286.491 891.44 286.832 891.674 287.088C891.909 287.344 892.186 287.536 892.506 287.664C892.848 287.771 893.2 287.824 893.562 287.824C894.096 287.824 894.597 287.739 895.066 287.568C895.536 287.397 895.984 287.195 896.41 286.96L897.21 289.264C896.784 289.52 896.208 289.765 895.482 290C894.757 290.256 894 290.384 893.21 290.384C891.61 290.384 890.341 289.861 889.402 288.816C888.485 287.771 888.026 286.256 888.026 284.272V276.464H885.146V273.968H888.09L888.698 268.72ZM910.018 276.144C909.613 275.973 909.133 275.888 908.578 275.888C907.981 275.888 907.394 276.016 906.818 276.272C906.263 276.528 905.762 276.912 905.314 277.424C904.887 277.936 904.535 278.597 904.258 279.408C904.002 280.197 903.874 281.136 903.874 282.224V290H900.994V273.36H903.778V276.976C903.97 276.464 904.226 275.963 904.546 275.472C904.866 274.981 905.239 274.555 905.666 274.192C906.114 273.829 906.626 273.541 907.202 273.328C907.778 273.093 908.418 272.976 909.122 272.976C909.442 272.976 909.751 272.997 910.05 273.04C910.37 273.061 910.647 273.104 910.882 273.168L910.018 276.144ZM915.08 297.424C914.44 297.424 913.875 297.36 913.384 297.232C912.915 297.104 912.541 296.955 912.264 296.784L912.904 294.384C913.16 294.533 913.469 294.661 913.832 294.768C914.216 294.875 914.653 294.928 915.144 294.928C915.592 294.928 916.008 294.864 916.392 294.736C916.797 294.608 917.181 294.384 917.544 294.064C917.907 293.744 918.248 293.307 918.568 292.752C918.909 292.197 919.24 291.504 919.56 290.672L920.296 288.752H918.76L912.264 274.128L914.824 272.976L921.032 286.832L925.864 273.104L928.52 274.128L922.408 290.832C921.939 292.112 921.437 293.168 920.904 294C920.392 294.853 919.837 295.536 919.24 296.048C918.643 296.56 917.992 296.912 917.288 297.104C916.605 297.317 915.869 297.424 915.08 297.424ZM941.666 281.776C941.666 280.539 941.858 279.387 942.242 278.32C942.626 277.232 943.159 276.293 943.842 275.504C944.546 274.715 945.378 274.096 946.338 273.648C947.319 273.2 948.386 272.976 949.538 272.976C950.498 272.976 951.362 273.147 952.13 273.488C952.919 273.808 953.602 274.213 954.178 274.704V273.36H956.802V285.968C956.802 286.779 956.994 287.312 957.378 287.568C957.783 287.803 958.22 287.92 958.69 287.92L958.082 290.16C956.034 290.16 954.796 289.328 954.37 287.664C954.114 288.005 953.815 288.347 953.474 288.688C953.154 289.008 952.78 289.296 952.354 289.552C951.927 289.808 951.447 290.011 950.914 290.16C950.38 290.309 949.794 290.384 949.154 290.384C948.108 290.384 947.127 290.181 946.21 289.776C945.314 289.371 944.524 288.795 943.842 288.048C943.18 287.301 942.647 286.405 942.242 285.36C941.858 284.293 941.666 283.099 941.666 281.776ZM949.794 287.824C950.604 287.824 951.372 287.632 952.098 287.248C952.823 286.864 953.431 286.363 953.922 285.744V276.816C953.346 276.411 952.706 276.091 952.002 275.856C951.319 275.6 950.594 275.472 949.826 275.472C949.058 275.472 948.354 275.621 947.714 275.92C947.074 276.219 946.519 276.645 946.05 277.2C945.602 277.733 945.25 278.384 944.994 279.152C944.738 279.92 944.61 280.763 944.61 281.68C944.61 282.576 944.738 283.408 944.994 284.176C945.25 284.923 945.612 285.573 946.082 286.128C946.551 286.661 947.095 287.077 947.714 287.376C948.354 287.675 949.047 287.824 949.794 287.824ZM966.209 276.144C966.806 275.248 967.563 274.501 968.481 273.904C969.419 273.285 970.529 272.976 971.809 272.976C973.686 272.976 975.083 273.541 976.001 274.672C976.939 275.803 977.409 277.296 977.409 279.152V290H974.529V279.472C974.529 278.256 974.251 277.296 973.697 276.592C973.142 275.867 972.353 275.504 971.329 275.504C970.838 275.504 970.358 275.6 969.889 275.792C969.419 275.963 968.961 276.208 968.513 276.528C968.086 276.848 967.681 277.221 967.297 277.648C966.934 278.075 966.603 278.523 966.305 278.992V290H963.425V273.36H966.209V276.144ZM989.555 290.384C988.531 290.384 987.56 290.181 986.643 289.776C985.747 289.371 984.958 288.795 984.275 288.048C983.614 287.301 983.091 286.405 982.707 285.36C982.323 284.293 982.131 283.099 982.131 281.776C982.131 280.517 982.323 279.355 982.707 278.288C983.112 277.2 983.646 276.272 984.307 275.504C984.99 274.715 985.779 274.096 986.675 273.648C987.571 273.2 988.52 272.976 989.523 272.976C990.632 272.976 991.582 273.2 992.371 273.648C993.182 274.096 993.811 274.555 994.259 275.024V266.32H997.139V285.968C997.139 286.779 997.331 287.312 997.715 287.568C998.12 287.803 998.558 287.92 999.027 287.92L998.419 290.16C996.392 290.16 995.155 289.349 994.707 287.728C994.216 288.411 993.555 289.029 992.723 289.584C991.891 290.117 990.835 290.384 989.555 290.384ZM990.195 287.824C990.984 287.824 991.731 287.643 992.435 287.28C993.16 286.896 993.768 286.405 994.259 285.808V277.552C993.854 277.04 993.288 276.571 992.563 276.144C991.859 275.696 991.059 275.472 990.163 275.472C989.395 275.472 988.691 275.632 988.051 275.952C987.432 276.272 986.899 276.709 986.451 277.264C986.003 277.819 985.662 278.48 985.427 279.248C985.192 279.995 985.075 280.805 985.075 281.68C985.075 282.576 985.203 283.397 985.459 284.144C985.715 284.891 986.067 285.541 986.515 286.096C986.984 286.629 987.528 287.056 988.147 287.376C988.787 287.675 989.47 287.824 990.195 287.824ZM1014.02 286.256C1014.58 286.747 1015.27 287.141 1016.1 287.44C1016.96 287.739 1017.86 287.888 1018.82 287.888C1020.02 287.888 1020.91 287.696 1021.51 287.312C1022.13 286.907 1022.44 286.395 1022.44 285.776C1022.44 285.456 1022.38 285.157 1022.25 284.88C1022.14 284.603 1021.93 284.336 1021.61 284.08C1021.31 283.824 1020.89 283.579 1020.36 283.344C1019.83 283.088 1019.13 282.811 1018.28 282.512C1016.7 281.979 1015.53 281.349 1014.76 280.624C1013.99 279.877 1013.61 278.853 1013.61 277.552C1013.61 276.912 1013.75 276.315 1014.02 275.76C1014.32 275.205 1014.74 274.725 1015.27 274.32C1015.83 273.893 1016.49 273.563 1017.26 273.328C1018.04 273.093 1018.94 272.976 1019.94 272.976C1021.03 272.976 1021.98 273.093 1022.79 273.328C1023.62 273.541 1024.37 273.819 1025.03 274.16L1024.23 276.528C1023.66 276.187 1022.99 275.909 1022.25 275.696C1021.52 275.483 1020.71 275.376 1019.82 275.376C1018.71 275.376 1017.86 275.6 1017.29 276.048C1016.71 276.496 1016.42 276.987 1016.42 277.52C1016.42 277.776 1016.47 278.011 1016.55 278.224C1016.66 278.437 1016.84 278.64 1017.1 278.832C1017.35 279.024 1017.69 279.216 1018.12 279.408C1018.55 279.6 1019.08 279.803 1019.72 280.016C1020.76 280.379 1021.65 280.752 1022.38 281.136C1023.1 281.499 1023.69 281.904 1024.14 282.352C1024.58 282.8 1024.9 283.291 1025.1 283.824C1025.29 284.336 1025.38 284.912 1025.38 285.552C1025.38 286.299 1025.22 286.971 1024.9 287.568C1024.58 288.165 1024.14 288.677 1023.56 289.104C1022.98 289.509 1022.28 289.819 1021.45 290.032C1020.64 290.267 1019.73 290.384 1018.73 290.384C1017.45 290.384 1016.31 290.224 1015.3 289.904C1014.3 289.584 1013.47 289.168 1012.81 288.656L1014.02 286.256ZM1031.42 268.72H1033.63V273.968H1038.23V276.464H1033.63V284.496C1033.63 285.115 1033.69 285.637 1033.82 286.064C1033.97 286.491 1034.16 286.832 1034.39 287.088C1034.63 287.344 1034.91 287.536 1035.23 287.664C1035.57 287.771 1035.92 287.824 1036.28 287.824C1036.81 287.824 1037.32 287.739 1037.79 287.568C1038.25 287.397 1038.7 287.195 1039.13 286.96L1039.93 289.264C1039.5 289.52 1038.93 289.765 1038.2 290C1037.48 290.256 1036.72 290.384 1035.93 290.384C1034.33 290.384 1033.06 289.861 1032.12 288.816C1031.2 287.771 1030.75 286.256 1030.75 284.272V276.464H1027.87V273.968H1030.81L1031.42 268.72ZM1055.44 281.68C1055.44 280.848 1055.3 280.059 1055.02 279.312C1054.77 278.565 1054.39 277.915 1053.9 277.36C1053.43 276.805 1052.87 276.368 1052.21 276.048C1051.57 275.707 1050.86 275.536 1050.1 275.536C1048.41 275.536 1047.1 276.091 1046.16 277.2C1045.22 278.309 1044.75 279.781 1044.75 281.616C1044.75 282.448 1044.88 283.248 1045.14 284.016C1045.41 284.763 1045.79 285.424 1046.26 286C1046.75 286.555 1047.31 287.003 1047.95 287.344C1048.61 287.664 1049.33 287.824 1050.1 287.824C1050.93 287.824 1051.67 287.675 1052.34 287.376C1053 287.077 1053.55 286.661 1054 286.128C1054.47 285.573 1054.82 284.923 1055.06 284.176C1055.31 283.429 1055.44 282.597 1055.44 281.68ZM1041.81 281.68C1041.81 280.336 1042.02 279.131 1042.45 278.064C1042.87 276.976 1043.45 276.059 1044.18 275.312C1044.92 274.565 1045.8 273.989 1046.8 273.584C1047.82 273.179 1048.92 272.976 1050.1 272.976C1051.25 272.976 1052.33 273.179 1053.33 273.584C1054.35 273.989 1055.24 274.565 1055.98 275.312C1056.73 276.059 1057.32 276.965 1057.74 278.032C1058.17 279.099 1058.38 280.293 1058.38 281.616C1058.38 282.939 1058.17 284.144 1057.74 285.232C1057.34 286.299 1056.76 287.216 1056.02 287.984C1055.27 288.752 1054.38 289.349 1053.36 289.776C1052.36 290.181 1051.27 290.384 1050.1 290.384C1048.9 290.384 1047.79 290.171 1046.77 289.744C1045.77 289.317 1044.89 288.72 1044.14 287.952C1043.42 287.184 1042.84 286.267 1042.42 285.2C1042.01 284.133 1041.81 282.96 1041.81 281.68ZM1061.8 273.36C1063.77 273.36 1064.99 274.139 1065.48 275.696C1065.63 275.461 1065.86 275.184 1066.16 274.864C1066.48 274.544 1066.86 274.245 1067.31 273.968C1067.76 273.691 1068.27 273.456 1068.84 273.264C1069.42 273.072 1070.06 272.976 1070.76 272.976C1071.72 272.976 1072.64 273.168 1073.52 273.552C1074.41 273.936 1075.19 274.491 1075.85 275.216C1076.54 275.941 1077.08 276.837 1077.48 277.904C1077.89 278.971 1078.09 280.176 1078.09 281.52C1078.09 282.843 1077.89 284.048 1077.48 285.136C1077.1 286.224 1076.57 287.163 1075.88 287.952C1075.22 288.72 1074.46 289.317 1073.58 289.744C1072.71 290.171 1071.79 290.384 1070.83 290.384C1069.83 290.384 1068.9 290.192 1068.04 289.808C1067.21 289.403 1066.52 288.944 1065.96 288.432V297.04H1063.08V277.616C1063.08 276.891 1062.9 276.379 1062.54 276.08C1062.2 275.76 1061.75 275.6 1061.2 275.6L1061.8 273.36ZM1075.15 281.616C1075.15 280.656 1075.01 279.803 1074.73 279.056C1074.48 278.288 1074.11 277.637 1073.64 277.104C1073.2 276.571 1072.66 276.165 1072.04 275.888C1071.45 275.611 1070.81 275.472 1070.12 275.472C1069.21 275.472 1068.38 275.707 1067.63 276.176C1066.9 276.624 1066.35 277.115 1065.96 277.648V285.84C1066.52 286.416 1067.15 286.896 1067.85 287.28C1068.58 287.643 1069.38 287.824 1070.25 287.824C1070.98 287.824 1071.64 287.675 1072.24 287.376C1072.83 287.077 1073.35 286.661 1073.77 286.128C1074.22 285.573 1074.56 284.923 1074.8 284.176C1075.03 283.408 1075.15 282.555 1075.15 281.616ZM1108.35 290.16C1107.33 290.16 1106.52 289.957 1105.92 289.552C1105.32 289.147 1104.91 288.56 1104.67 287.792C1103.93 288.56 1103.06 289.189 1102.08 289.68C1101.12 290.149 1100.07 290.384 1098.91 290.384C1098.19 290.384 1097.48 290.267 1096.8 290.032C1096.14 289.819 1095.54 289.467 1095.01 288.976C1094.5 288.485 1094.08 287.845 1093.76 287.056C1093.46 286.267 1093.31 285.307 1093.31 284.176V273.36H1096.19V283.792C1096.19 285.093 1096.46 286.096 1096.99 286.8C1097.55 287.483 1098.37 287.824 1099.46 287.824C1100.35 287.824 1101.21 287.653 1102.02 287.312C1102.83 286.949 1103.55 286.469 1104.19 285.872V273.36H1107.07V285.68C1107.07 286.149 1107.13 286.533 1107.23 286.832C1107.34 287.109 1107.48 287.333 1107.65 287.504C1107.82 287.653 1108.02 287.76 1108.26 287.824C1108.49 287.888 1108.73 287.92 1108.96 287.92L1108.35 290.16ZM1113.45 286.256C1114.01 286.747 1114.7 287.141 1115.53 287.44C1116.38 287.739 1117.29 287.888 1118.25 287.888C1119.45 287.888 1120.34 287.696 1120.94 287.312C1121.56 286.907 1121.87 286.395 1121.87 285.776C1121.87 285.456 1121.8 285.157 1121.67 284.88C1121.57 284.603 1121.35 284.336 1121.03 284.08C1120.74 283.824 1120.32 283.579 1119.79 283.344C1119.25 283.088 1118.56 282.811 1117.71 282.512C1116.13 281.979 1114.95 281.349 1114.19 280.624C1113.42 279.877 1113.03 278.853 1113.03 277.552C1113.03 276.912 1113.17 276.315 1113.45 275.76C1113.75 275.205 1114.17 274.725 1114.7 274.32C1115.25 273.893 1115.91 273.563 1116.68 273.328C1117.47 273.093 1118.37 272.976 1119.37 272.976C1120.46 272.976 1121.41 273.093 1122.22 273.328C1123.05 273.541 1123.8 273.819 1124.46 274.16L1123.66 276.528C1123.08 276.187 1122.42 275.909 1121.67 275.696C1120.95 275.483 1120.14 275.376 1119.24 275.376C1118.13 275.376 1117.29 275.6 1116.71 276.048C1116.14 276.496 1115.85 276.987 1115.85 277.52C1115.85 277.776 1115.89 278.011 1115.98 278.224C1116.09 278.437 1116.27 278.64 1116.52 278.832C1116.78 279.024 1117.12 279.216 1117.55 279.408C1117.97 279.6 1118.51 279.803 1119.15 280.016C1120.19 280.379 1121.08 280.752 1121.8 281.136C1122.53 281.499 1123.11 281.904 1123.56 282.352C1124.01 282.8 1124.33 283.291 1124.52 283.824C1124.71 284.336 1124.81 284.912 1124.81 285.552C1124.81 286.299 1124.65 286.971 1124.33 287.568C1124.01 288.165 1123.56 288.677 1122.99 289.104C1122.41 289.509 1121.71 289.819 1120.87 290.032C1120.06 290.267 1119.16 290.384 1118.15 290.384C1116.87 290.384 1115.73 290.224 1114.73 289.904C1113.73 289.584 1112.9 289.168 1112.23 288.656L1113.45 286.256ZM1130.36 266.672H1133.56V274.64L1133.15 283.376H1130.78L1130.36 274.64V266.672ZM1129.85 288.24C1129.85 287.579 1130.03 287.056 1130.4 286.672C1130.78 286.288 1131.31 286.096 1132 286.096C1132.55 286.096 1133.04 286.309 1133.47 286.736C1133.92 287.163 1134.14 287.664 1134.14 288.24C1134.14 288.88 1133.94 289.403 1133.53 289.808C1133.13 290.192 1132.61 290.384 1132 290.384C1131.42 290.384 1130.92 290.171 1130.49 289.744C1130.07 289.317 1129.85 288.816 1129.85 288.24Z" fill="white"/>
<path fill-rule="evenodd" clip-rule="evenodd" d="M465.416 160.97C465.432 161.273 465.437 161.581 465.437 161.884C465.437 171.228 458.215 182 445.008 182C440.951 182 437.179 180.83 434 178.822C434.563 178.888 435.134 178.921 435.712 178.921C439.079 178.921 442.174 177.79 444.629 175.897C441.489 175.839 438.835 173.798 437.922 170.989C438.36 171.069 438.811 171.112 439.273 171.112C439.929 171.112 440.564 171.028 441.165 170.867C437.88 170.215 435.406 167.36 435.406 163.933C435.406 163.903 435.406 163.875 435.406 163.845C436.374 164.375 437.483 164.693 438.658 164.73C436.732 163.461 435.463 161.3 435.463 158.845C435.463 157.551 435.817 156.335 436.437 155.29C439.977 159.569 445.27 162.382 451.237 162.678C451.116 162.159 451.053 161.622 451.053 161.066C451.053 157.163 454.266 154 458.232 154C460.298 154 462.164 154.856 463.474 156.23C465.108 155.912 466.645 155.324 468.034 154.515C467.497 156.165 466.358 157.551 464.876 158.425C466.329 158.253 467.71 157.876 469 157.313C468.037 158.732 466.82 159.976 465.416 160.97Z" fill="white"/>
</g>
</g>
<defs>
<filter id="filter0_d" x="0" y="0" width="2008" height="563" filterUnits="userSpaceOnUse" color-interpolation-filters="sRGB">
<feFlood flood-opacity="0" result="BackgroundImageFix"/>
<feColorMatrix in="SourceAlpha" type="matrix" values="0 0 0 0 0 0 0 0 0 0 0 0 0 0 0 0 0 0 127 0"/>
<feOffset dy="4"/>
<feGaussianBlur stdDeviation="2"/>
<feColorMatrix type="matrix" values="0 0 0 0 0 0 0 0 0 0 0 0 0 0 0 0 0 0 0.25 0"/>
<feBlend mode="normal" in2="BackgroundImageFix" result="effect1_dropShadow"/>
<feBlend mode="normal" in="SourceGraphic" in2="effect1_dropShadow" result="shape"/>
</filter>
<clipPath id="clip0">
<rect width="696" height="148" fill="white" transform="translate(434 154)"/>
</clipPath>
</defs>
</svg>
