<svg width="202" height="40" viewBox="0 0 202 40" fill="none" xmlns="http://www.w3.org/2000/svg">
<path d="M63.092 14.134V22.464C63.092 23.62 62.7577 24.521 62.089 25.167C61.4203 25.8017 60.525 26.119 59.403 26.119C58.2697 26.119 57.3517 25.7903 56.649 25.133C55.9577 24.4757 55.612 23.5577 55.612 22.379H57.992C58.0033 22.889 58.1223 23.2857 58.349 23.569C58.587 23.8523 58.927 23.994 59.369 23.994C59.7997 23.994 60.1283 23.858 60.355 23.586C60.5817 23.314 60.695 22.94 60.695 22.464V14.134H63.092ZM81.3763 26.119C80.2656 26.119 79.2456 25.8583 78.3163 25.337C77.387 24.8157 76.6503 24.096 76.1063 23.178C75.5623 22.2487 75.2903 21.2003 75.2903 20.033C75.2903 18.877 75.5623 17.84 76.1063 16.922C76.6503 15.9927 77.387 15.2673 78.3163 14.746C79.2456 14.2247 80.2656 13.964 81.3763 13.964C82.4983 13.964 83.5183 14.2247 84.4363 14.746C85.3656 15.2673 86.0966 15.9927 86.6293 16.922C87.1733 17.84 87.4453 18.877 87.4453 20.033C87.4453 21.2003 87.1733 22.2487 86.6293 23.178C86.0966 24.096 85.3656 24.8157 84.4363 25.337C83.507 25.8583 82.487 26.119 81.3763 26.119ZM81.3763 23.994C82.0903 23.994 82.7193 23.8353 83.2633 23.518C83.8073 23.1893 84.2323 22.7247 84.5383 22.124C84.8443 21.5233 84.9973 20.8263 84.9973 20.033C84.9973 19.2397 84.8443 18.5483 84.5383 17.959C84.2323 17.3583 83.8073 16.8993 83.2633 16.582C82.7193 16.2647 82.0903 16.106 81.3763 16.106C80.6623 16.106 80.0276 16.2647 79.4723 16.582C78.9283 16.8993 78.5033 17.3583 78.1973 17.959C77.8913 18.5483 77.7383 19.2397 77.7383 20.033C77.7383 20.8263 77.8913 21.5233 78.1973 22.124C78.5033 22.7247 78.9283 23.1893 79.4723 23.518C80.0276 23.8353 80.6623 23.994 81.3763 23.994ZM101.562 14.134V21.478C101.562 22.2827 101.772 22.9003 102.191 23.331C102.61 23.7503 103.2 23.96 103.959 23.96C104.73 23.96 105.325 23.7503 105.744 23.331C106.163 22.9003 106.373 22.2827 106.373 21.478V14.134H108.77V21.461C108.77 22.4697 108.549 23.3253 108.107 24.028C107.676 24.7193 107.093 25.2407 106.356 25.592C105.631 25.9433 104.82 26.119 103.925 26.119C103.041 26.119 102.236 25.9433 101.511 25.592C100.797 25.2407 100.23 24.7193 99.811 24.028C99.3916 23.3253 99.182 22.4697 99.182 21.461V14.134H101.562ZM127.189 26L124.571 21.376H123.449V26H121.069V14.134H125.523C126.441 14.134 127.223 14.2983 127.869 14.627C128.515 14.9443 128.997 15.3807 129.314 15.936C129.643 16.48 129.807 17.092 129.807 17.772C129.807 18.554 129.581 19.2623 129.127 19.897C128.674 20.5203 128 20.951 127.104 21.189L129.943 26H127.189ZM123.449 19.591H125.438C126.084 19.591 126.566 19.438 126.883 19.132C127.201 18.8147 127.359 18.3783 127.359 17.823C127.359 17.279 127.201 16.8597 126.883 16.565C126.566 16.259 126.084 16.106 125.438 16.106H123.449V19.591ZM152.109 26H149.729L144.34 17.857V26H141.96V14.117H144.34L149.729 22.277V14.117H152.109V26ZM166.841 16.055V19.03H170.836V20.917H166.841V24.062H171.346V26H164.461V14.117H171.346V16.055H166.841ZM192.944 14.134L188.932 21.869V26H186.552V21.869L182.523 14.134H185.209L187.759 19.557L190.292 14.134H192.944Z" fill="white"/>
<path fill-rule="evenodd" clip-rule="evenodd" d="M11.302 14.4226C21.6114 10.7895 36.8219 5.42916 37.2801 5.268C37.9661 5.026 38.4201 5.444 38.2621 6.13C38.1401 6.658 32.6481 30.328 32.4501 31.18C32.2821 31.902 31.5281 32.16 30.9461 31.848C30.2821 31.492 20.9821 26.484 20.9821 26.484L19.7841 25.84L20.6881 24.834V24.83C20.6881 24.83 36.2161 8.038 36.4301 7.804C36.6441 7.572 36.3041 7.166 36.0081 7.382C35.7161 7.598 14.0401 23.514 14.0401 23.514L9.54007 21.712C9.54007 21.712 2.75007 18.992 1.94807 18.67C1.27407 18.402 1.40007 17.912 1.96807 17.712C2.1919 17.6332 6.13027 16.2452 11.302 14.4226ZM14.6621 34.606C14.2781 34.954 14.0001 34.816 14.0001 34.324V26.196L20.3621 29.484C20.3621 29.484 15.1641 34.148 14.6621 34.606Z" fill="white"/>
<mask id="mask0" mask-type="alpha" maskUnits="userSpaceOnUse" x="1" y="5" width="38" height="30">
<path fill-rule="evenodd" clip-rule="evenodd" d="M11.302 14.4226C21.6114 10.7895 36.8219 5.42916 37.2801 5.268C37.9661 5.026 38.4201 5.444 38.2621 6.13C38.1401 6.658 32.6481 30.328 32.4501 31.18C32.2821 31.902 31.5281 32.16 30.9461 31.848C30.2821 31.492 20.9821 26.484 20.9821 26.484L19.7841 25.84L20.6881 24.834V24.83C20.6881 24.83 36.2161 8.038 36.4301 7.804C36.6441 7.572 36.3041 7.166 36.0081 7.382C35.7161 7.598 14.0401 23.514 14.0401 23.514L9.54007 21.712C9.54007 21.712 2.75007 18.992 1.94807 18.67C1.27407 18.402 1.40007 17.912 1.96807 17.712C2.1919 17.6332 6.13027 16.2452 11.302 14.4226ZM14.6621 34.606C14.2781 34.954 14.0001 34.816 14.0001 34.324V26.196L20.3621 29.484C20.3621 29.484 15.1641 34.148 14.6621 34.606Z" fill="white"/>
</mask>
<g mask="url(#mask0)">
<rect width="45" height="40" fill="#0076FF"/>
</g>
</svg>
